<?xml version="1.0" encoding="UTF-8"?>
<svg id="_レイヤー_1" data-name="レイヤー 1" xmlns="http://www.w3.org/2000/svg" viewBox="0 0 411.41 71.41">
  <defs>
    <style>
      .cls-1, .cls-2, .cls-3, .cls-4 {
        stroke-width: 0px;
      }

      .cls-2 {
        fill: #231814;
      }

      .cls-3 {
        fill: #fff;
      }

      .cls-4 {
        fill: #000014;
      }
    </style>
  </defs>
  <path class="cls-1" d="m12.53,27.76c2.41,2.4,3.42,5.36,3.03,8.86-.11.9-.56,1.14-1.36.69l-1.03-.56c-.63-.34-.94-.16-.94.55l.15,24.14c0,.82-.41,1.23-1.22,1.24l-4.81.03c-.64,0-.95-.31-.94-.94l.23-15.96c.02-.34-.24-.62-.58-.64-.22-.01-.43.09-.54.28l-2.76,4c-.3.44-.89.55-1.33.26-.28-.19-.44-.5-.42-.84l.21-9.79c.01-.55.14-1.06.4-1.54l5.09-9.46c.54-1,.24-1.5-.91-1.49l-3.79.03c-.45,0-.81-.36-.81-.79H.2s.07-6.76.07-6.76c0-.42.34-.76.76-.76h3.67c.56,0,.84-.28.84-.84l-.1-7.01c0-.61.3-.91.91-.93l5.27-.07c.48-.01.88.38.89.87,0,.02,0,.05,0,.07l-.36,6.81c-.03.53.37.98.89,1.03l1.64.17c.64.05,1.13.61,1.09,1.26l-.35,5.9c-.04.66-.4,1-1.06,1.01l-1.39.03c-.37,0-.66.31-.65.67,0,.18.08.35.21.47Z"/>
  <path class="cls-1" d="m169.97,41.46h-2.99c-.84,0-1.26.42-1.26,1.26l-.02,19.2c0,.55-.28.82-.83.81l-7.13-.1c-.49,0-.73-.25-.73-.74l.05-42.81c0-.69.34-1.04,1.03-1.04l22.14-.02c.54,0,.81-.28.81-.83l.05-6.65c.01-.68.36-1.03,1.04-1.03l6.04.03c.6,0,.89.3.89.91l-.03,6.75c0,.51.4.92.91.94l9.03.23c.79.02,1.19.43,1.19,1.22v4.28c0,.65-.33.98-.99.98l-8.95.02c-.64,0-.9.31-.79.93l1.42,8.15c.08.5.54.84,1.04.76.37-.06.67-.33.75-.7l.84-3.32c.12-.5.59-.84,1.11-.83l5.27.21c.8.03,1.07.43.81,1.19l-4.1,11.26c-.21.58-.14,1.12.21,1.62l2.89,4.12c.34.46.51.99.5,1.57l-.17,11.95c-.01.32-.28.57-.6.56-.1,0-.2-.04-.29-.09-2.84-1.9-5.1-4.33-6.76-7.31-.25-.45-.81-.61-1.26-.36-.16.09-.29.23-.38.39l-3.6,6.91c-.25.49-.76.79-1.31.79l-8.18.05c-.27,0-.5-.21-.51-.49,0-.1.02-.19.08-.28l8.93-15.08c.32-.53.36-1.08.13-1.65-2.6-6.32-4.32-12.85-5.14-19.61-.07-.51-.35-.76-.84-.74h-13.48c-.66,0-1,.33-1.01.99l-.1,6.1c0,.56.44,1.02,1.01,1.02,0,0,.01,0,.02,0l10.66-.02c.64,0,.94.32.91.96l-1.34,23.93c-.03.53-.48.94-1.01.94l-8.22-.02c-.4,0-.73-.32-.73-.73,0-.06,0-.11.02-.17l3.57-15.69c.11-.51-.09-.76-.61-.76Z"/>
  <path class="cls-1" d="m26.62,12.73l.26-2.56c.04-.34.33-.6.68-.6l6.58-.05c.34,0,.64.25.68.6l.35,2.63c.04.34.33.6.68.6l7.34-.05c.37,0,.69.29.69.66,0,.01,0,.02,0,.03l-.05,5.42c0,.36-.3.65-.66.66l-7.77.05c-.37,0-.68.3-.68.68,0,.02,0,.03,0,.05l.13,1.79c.03.35.32.63.68.63l7.16.05c.37,0,.68.3.68.68h0s-.02,37.98-.02,37.98c0,.37-.29.67-.66.68l-4.68.05c-.37,0-.69-.29-.7-.66,0-.02,0-.03,0-.05l.38-7.44c.02-.37-.27-.69-.64-.71,0,0,0,0,0,0l-3.21-.18c-.37-.02-.69.27-.71.64,0,.01,0,.02,0,.03l.1,7.72c0,.37-.3.68-.68.68l-5.27-.05c-.37,0-.68-.3-.68-.68,0-.02,0-.03,0-.05l.38-7.37c.02-.36-.24-.67-.6-.71l-2.83-.36c-.37-.05-.71.22-.76.59,0,.03,0,.06,0,.09l.08,7.77c0,.37-.29.67-.66.68l-4.51.15c-.37.02-.69-.27-.71-.64,0-.02,0-.03,0-.05l.26-38.13c0-.37.3-.68.68-.68l8.33.02c.37,0,.68-.3.68-.68,0,0,0-.01,0-.02l-.05-1.9c0-.37-.32-.67-.69-.66,0,0,0,0,0,0l-8.15.12c-.36,0-.67-.27-.69-.63l-.41-5.57c-.03-.37.25-.7.63-.73.02,0,.05,0,.07,0l8.3.1c.34,0,.64-.25.68-.6Zm5.19,16.34l-3.9-.1c-.17,0-.32.12-.33.3,0,0,0,.01,0,.02v.25c-.04,1.86.91,3.39,2.13,3.42h.1c1.22.03,2.25-1.45,2.3-3.31,0,0,0,0,0-.01v-.25c0-.17-.13-.31-.3-.31Zm2.05,7.72c-.19.57.02.84.61.81l2.17-.15c.66-.06,1.01-.41,1.04-1.07l.17-4.38c.02-.75-.23-.87-.76-.35-1.49,1.46-2.56,3.17-3.22,5.14Zm-10.83-4.63c-.11-.17-.34-.21-.5-.1-.12.08-.18.22-.16.37l.48,4.25c.09.68.71,1.16,1.39,1.08,0,0,0,0,0,0l1.32-.17c.42-.06.72-.45.67-.87-.02-.12-.06-.24-.14-.34l-3.06-4.22Zm3.36,12.05c-1.27-.49-2.44-.41-3.52.23-.72.43-.96,1.36-.53,2.09.27.46.77.74,1.3.74l2.17.02c.88.01,1.6-.68,1.61-1.56.01-.67-.4-1.28-1.04-1.52Zm11.29.94c-.03-.69-.62-1.23-1.31-1.2l-2.35.1c-.69.03-1.23.62-1.2,1.31h0s.03.79.03.79c.03.69.62,1.23,1.31,1.2l2.35-.1c.69-.03,1.23-.62,1.2-1.31h0s-.03-.79-.03-.79Z"/>
  <path class="cls-1" d="m85.62,27.67c1.75,6.62,5.02,12.4,9.79,17.31.37.38.57.89.56,1.42l-.03,10.81c-.01,3.37-1.02,3.7-3.03.99-6.67-9.04-10.8-18.92-12.38-29.65-.12-.84-.52-1.44-1.19-1.8-.38-.2-.85-.06-1.05.32-.06.11-.09.24-.09.37l.26,18.82c0,.46.39.82.84.81.01,0,.02,0,.03,0l3.69-.21c.72-.04,1.12.3,1.21,1.03l.53,4.94c.05.52-.32.98-.84,1.04-.03,0-.07,0-.1,0h-4.33c-.84,0-1.23.42-1.17,1.26l.36,6.6c.03.58-.25.88-.84.89l-6.98.1c-.64.01-.95-.3-.93-.94l.35-6.89c.03-.65-.28-.98-.94-.99l-4.37-.02c-.57-.01-.85-.3-.83-.88l.13-5.13c0-.54.45-.97.99-.96.01,0,.02,0,.03,0l3.8.2c.68.03,1.03-.29,1.03-.98,0-5.85.19-11.67.58-17.44.1-1.59-.45-2.16-1.64-1.72-.58.22-.99.74-1.07,1.36-1.48,11.44-5.8,21.63-12.98,30.56-.43.53-1.22.61-1.75.17-.28-.23-.45-.58-.45-.95l.07-11.97c0-.33.11-.65.31-.91,4.43-5.75,8.45-10.33,9.67-17.79.1-.57-.14-.86-.73-.86h-8.43c-.53,0-.96-.44-.96-.98h0s.08-7.32.08-7.32c0-.6.49-1.07,1.07-1.07l15.31.03c.69,0,1.03-.35.99-1.04l-.23-5.77c-.02-.6.27-.9.88-.91h6.91c.47,0,.84.38.84.84,0,.02,0,.03,0,.05l-.23,5.75c-.02.68.31,1.03.99,1.03l15.59-.03c.64,0,.96.31.98.94l.07,7.28c.01.83-.4,1.24-1.24,1.24l-8.32-.02c-.47,0-.86.39-.85.87,0,.07,0,.14.03.21Z"/>
  <path class="cls-1" d="m132.99,32.14c4.82-1.94,9.24-4.51,13.28-7.71.68-.55,1.01-.39.98.5l-.48,10.66c-.02.49-.29.94-.71,1.19-4.01,2.37-8.32,4.01-12.91,4.93-.75.14-1.12.6-1.12,1.37l-.02,7.92c0,.55.28.83.83.83l13.39-.02c.68,0,1.03.34,1.03,1.01l.03,8.76c0,.72-.36,1.07-1.09,1.07h-22.44c-.61,0-.91-.3-.91-.91l.08-51.32c0-.56.28-.84.84-.84l7.41-.07c.65-.01.97.31.96.96l-.15,20.97c0,.41.33.75.73.75.1,0,.19-.02.28-.06Z"/>
  <path class="cls-4" d="m220.85,40.69l.12,21.08c.01.66-.31.99-.98.98l-5.92-.07c-.58,0-1.05-.48-1.04-1.06,0-.02,0-.05,0-.07l.51-7.66c.03-.27-.17-.52-.45-.54-.16-.02-.33.05-.43.18l-4.03,4.6c-.23.27-.64.3-.91.06-.14-.13-.23-.31-.23-.5l.15-16.6c0-.49.23-.96.6-1.27,3.55-3.08,5.29-6.98,5.21-11.72-.01-.58-.31-.87-.89-.86l-3.47.08c-.59,0-1.08-.46-1.09-1.04,0,0,0-.01,0-.02v-5.82c0-.56.28-.84.84-.83l3.74.03c.58,0,.87-.29.84-.88l-.33-8.35c-.02-.57.25-.86.81-.86h6.22c.67,0,1,.34.98,1.01l-.3,8.18c-.01.62.29.91.89.89l2.13-.07c.48-.02.89.37.91.86,0,.01,0,.02,0,.03l.03,5.69c0,.52-.42.94-.94.94-.01,0-.02,0-.03,0l-2.25-.07c-.54-.02-.99.4-1.01.94,0,.23.06.45.2.63l3.21,4.28c.1.13.16.28.18.45l.58,6.99c.03.41-.27.77-.68.8-.12.01-.25-.01-.36-.06l-2-.89c-.54-.24-.8-.07-.79.51Z"/>
  <path class="cls-1" d="m243.09,51.58l.26,10.12c.01.66-.31.99-.98.99l-5.09.02c-.73.01-1.07-.35-1.04-1.07l.51-11.49c0-.29-.23-.53-.52-.53-.17,0-.34.08-.44.22-3.01,4.53-4.13,8.45-9.29,11.87-.47.31-.71.18-.71-.4l.05-9.62c0-.57.2-1.06.61-1.47,3.56-3.55,5.84-7.79,6.85-12.71.14-.68-.14-1.03-.84-1.03l-6.04.05c-.54.01-.98-.42-.99-.97,0-.03,0-.06,0-.09l.21-3.26c.04-.73.44-1.1,1.17-1.11l7.66-.03c1.5-.07,2.66-1.36,2.59-2.86-.07-1.35-1.11-2.45-2.46-2.58-3.01-.17-5.33.82-6.96,2.94-.33.42-.94.5-1.37.18-.25-.19-.38-.48-.37-.79l.2-5.52c.01-.53.18-1,.51-1.42l6.15-7.74c.25-.32.71-.37,1.02-.12.21.16.31.42.27.68l-.64,4.35c-.09.63.35,1.22.97,1.3.01,0,.02,0,.04,0l.86.08c.89.09,1.32-.31,1.29-1.21l-.35-7.72c-.03-.68.3-1.03.99-1.04l5.16-.08c.67-.01,1,.32.98.99l-.21,7.97c-.02.69.31,1.04,1.01,1.04l6.05.03c.56,0,.84.28.84.84l-.05,4.56c0,.53-.27.79-.81.79l-5.94-.03c-.58,0-1.05.46-1.06,1.04l-.08,3.22c-.02.53.4.97.94.99.01,0,.02,0,.03,0l7.47-.02c.61,0,1.11.5,1.11,1.12l-.03,3.41c0,.66-.33.99-.99.99l-6.93.02c-.49,0-.89.4-.89.9,0,.18.06.36.16.51l7.82,11.16c.32.45.48.95.5,1.5l.23,9.16c0,.44-.35.8-.79.8-.23,0-.45-.1-.6-.27-2.39-2.84-4.41-5.9-6.05-9.18-1.41-2.83-2.08-2.67-2,.5Z"/>
  <path class="cls-1" d="m115.39,32.02l1.74-.08c.64-.03.96.26.96.89l.07,28.84c0,.67-.33,1.01-.99,1.01l-6.6.02c-.58,0-.87-.29-.86-.88l.3-19.74c.02-.56-.42-1.02-.97-1.04-.34-.01-.67.15-.86.43l-2.93,3.95c-.27.37-.79.44-1.16.17-.21-.16-.33-.4-.33-.66l.13-13.54c0-.49.2-.95.55-1.27,5.52-5.15,8.58-11.55,9.16-19.2.04-.61.37-.91.99-.91h2.55c.69,0,1.06.34,1.11,1.03.37,6.99-.79,13.67-3.51,20.04-.3.68-.08,1,.66.96Z"/>
  <rect class="cls-1" x="191.5" y="9.97" width="8.23" height="6.28" rx=".73" ry=".73" transform="translate(-.02 .34) rotate(-.1)"/>
  <path class="cls-1" d="m335.42,16.73c-5.74,6.24-12.1,11.74-19.06,16.5-1.09.75-1.64.46-1.64-.86l-.02-8.3c0-.55.33-1.04.83-1.26,6.46-2.74,11.97-6.77,16.53-12.07.35-.4.84-.63,1.37-.64l5.22-.2c.52-.02.94.16,1.27.55,4.68,5.46,10.33,9.61,16.93,12.47.51.21.76.59.76,1.14l.05,9.21c.01.32-.24.59-.56.6-.13,0-.25-.03-.35-.1-7.3-4.89-13.92-10.57-19.86-17.03-.5-.55-.99-.55-1.49,0Z"/>
  <path class="cls-1" d="m287.04,27.43h-24.59c-.66,0-.99-.33-.99-.98l.02-6.4c0-.69.35-1.04,1.06-1.04l24.12.05c.83,0,1.22-.41,1.19-1.24l-.23-6.05c-.02-.55.4-1.01.94-1.02.01,0,.02,0,.03,0l6.13-.03c.57,0,.88.28.91.84l.46,6.58c.04.64.39.96,1.03.96l7.13-.03c.47,0,.84.38.84.84l-.05,6.35c-.01.77-.4,1.16-1.17,1.16l-6.6.02c-.65,0-1.17.53-1.17,1.18,0,.08,0,.16.03.24,1.44,6.23,4.16,11.83,8.15,16.82.24.32.37.67.38,1.06l.2,14.05c.01.19-.13.36-.32.37-.09,0-.19-.03-.26-.09-10.03-8.51-15.42-19.38-16.15-32.61-.04-.68-.41-1.03-1.09-1.03Z"/>
  <rect class="cls-2" x="298.21" y="10.64" width="6.35" height="5.22" rx=".99" ry=".99" transform="translate(-.04 1.05) rotate(-.2)"/>
  <path class="cls-1" d="m379.55,42.36l.18,19.53c.01.47-.23.72-.71.73l-6.78.13c-.67.01-1-.31-.99-.98l.26-13.36c.01-.73-.28-.88-.88-.46l-3.51,2.41c-.28.2-.68.13-.88-.15-.08-.11-.12-.24-.12-.38l.18-8.9c.01-.51.23-.9.64-1.19,4.18-2.85,7.56-6.45,10.14-10.78.28-.46.13-1.06-.34-1.34-.16-.1-.34-.15-.52-.14l-8.7.05c-.64,0-.96-.33-.98-.98l-.02-5.72c0-.67.34-1,1.03-.99l4.18.12c.57.02.85-.25.84-.83l-.08-7.79c0-.55.28-.83.83-.83l5.92.1c.79.01,1.17.41,1.12,1.21l-.33,7.11c-.02.6.26.9.84.91l3.77.12c.46,0,.82.38.82.84,0,.06,0,.13-.02.19l-3.06,12.45c-.11.45.01.84.36,1.17,2.82,2.61,3.7,5.94,2.65,9.99-.18.69-.55.83-1.12.4l-3.98-3.03c-.52-.39-.77-.25-.76.4Z"/>
  <path class="cls-1" d="m411.41,54.79v7.87l-26.07.03c-.62,0-.92-.31-.91-.93l.02-6.18c0-.58.3-.88.89-.88h7.08c.55,0,.83-.28.83-.84l-.03-23.96c0-.54-.27-.81-.81-.81h-4.93c-.54,0-.82-.27-.84-.81l-.17-4.66c-.02-.59.45-1.09,1.04-1.11.01,0,.02,0,.03,0l4.86.02c.58,0,.88-.29.88-.88l-.1-8.83c-.01-.68.33-1.02,1.01-1.01h7.61c.68,0,1.02.34,1.01,1.03l-.07,8.83c0,.57.29.86.86.86l5.22.03c.68,0,1.02.34,1.01,1.03l-.03,4.65c-.01.56-.29.84-.84.84h-5.37c-.54,0-.81.27-.81.81l-.02,23.97c0,.53.26.8.79.81l7.87.12Z"/>
  <rect class="cls-2" x="325.65" y="27.91" width="20.9" height="6.22" rx="1.07" ry="1.07"/>
  <path class="cls-3" d="m31.81,29.06c.17,0,.3.15.3.31v.25c-.04,1.86-1.07,3.35-2.29,3.32,0,0,0,0,0,0h-.1c-1.22-.03-2.18-1.56-2.13-3.42v-.25c0-.17.14-.31.31-.31,0,0,.01,0,.02,0l3.9.1Z"/>
  <path class="cls-3" d="m33.86,36.78c.66-1.97,1.74-3.69,3.22-5.14.53-.52.78-.4.76.35l-.17,4.38c-.03.66-.38,1.02-1.04,1.07l-2.17.15c-.6.03-.8-.24-.61-.81Z"/>
  <path class="cls-3" d="m23.03,32.15l3.06,4.22c.25.34.17.82-.18,1.07-.1.07-.22.12-.35.14l-1.32.17c-.68.09-1.3-.39-1.39-1.07,0,0,0,0,0,0l-.48-4.25c-.04-.2.1-.39.29-.42.14-.03.29.04.37.16Z"/>
  <path class="cls-2" d="m279.6,45.91l6.28-2.1c.35-.12.72.06.84.41.02.06.03.13.04.2l.07,6c0,.27-.15.51-.4.61l-24.02,10.7c-.33.15-.72,0-.87-.34-.03-.08-.05-.17-.06-.25l-.05-8.09c0-.27.16-.51.41-.61l7.01-2.79c.25-.1.41-.34.41-.61l-.07-7.95c0-.37-.3-.66-.66-.66h-6.37c-.36,0-.65-.29-.66-.64l-.08-5.89c0-.37.28-.67.64-.68,0,0,.01,0,.02,0h23.43c.35,0,.64.27.66.61l.48,5.84c.03.36-.25.68-.61.71-.02,0-.03,0-.05,0h-6.45c-.35,0-.64.28-.66.63l-.17,4.27c-.01.37.28.67.64.68.08,0,.16,0,.23-.04Z"/>
  <path class="cls-1" d="m348.4,45.93c2.06,2.36,4.48,4.27,7.26,5.72.38.21.61.6.61,1.03l.05,8.8c0,.52-.42.94-.95.94-.19,0-.37-.06-.53-.16l-10.43-7.24c-.22-.14-.49-.18-.73-.08-8.81,3.36-17.82,6.02-27.03,7.99-1.46.32-2.18-.26-2.17-1.75v-5.74c.01-.61.31-.98.89-1.11,4.78-.99,7.94-3.87,9.46-8.65.15-.51-.04-.76-.58-.76l-8.38.15c-.63,0-1.15-.49-1.16-1.12,0,0,0-.01,0-.02l-.02-4.91c-.01-.55.26-.83.81-.83h41.32c.54,0,.81.27.81.81v4.91c.01.76-.37,1.14-1.14,1.12l-7.59-.17c-.99-.02-1.16.34-.51,1.07Zm-17.21,6.33l8.1-2.36c.57-.17.78-.53.61-1.11-.5-1.82-1.57-3.16-3.21-4.03-.66-.35-1.48-.13-1.88.5l-4.05,6.45c-.11.18-.05.41.13.52.09.05.2.07.3.04Z"/>
  <path class="cls-3" d="m26.39,44.21c.82.3,1.24,1.22.94,2.04-.23.63-.84,1.05-1.52,1.04l-2.17-.02c-.84,0-1.52-.68-1.52-1.52,0-.53.28-1.03.74-1.3,1.08-.64,2.25-.72,3.52-.23Z"/>
  <rect class="cls-3" x="32.84" y="43.99" width="4.86" height="3.31" rx="1.26" ry="1.26" transform="translate(-1.96 1.58) rotate(-2.5)"/>
  <path class="cls-3" d="m331.18,52.26c-.2.06-.41-.06-.47-.26-.03-.1-.01-.21.04-.3l4.05-6.45c.4-.63,1.22-.85,1.88-.5,1.64.87,2.71,2.22,3.21,4.03.17.57-.04.94-.61,1.11l-8.1,2.36Z"/>
</svg>