<?xml version="1.0" encoding="UTF-8"?>
<svg id="_レイヤー_1" data-name="レイヤー 1" xmlns="http://www.w3.org/2000/svg" xmlns:xlink="http://www.w3.org/1999/xlink" viewBox="0 0 1700.79 858.9">
  <defs>
    <style>
      .cls-1 {
        fill: none;
      }

      .cls-1, .cls-2, .cls-3, .cls-4, .cls-5 {
        stroke-width: 0px;
      }

      .cls-6 {
        fill: url(#_新規パターンスウォッチ_1);
        opacity: .08;
        stroke: url(#_新規パターンスウォッチ_1-2);
        stroke-miterlimit: 10;
      }

      .cls-3 {
        fill: #2ca0da;
      }

      .cls-4 {
        fill: #231815;
      }

      .cls-5 {
        fill: #fff;
      }
    </style>
    <symbol id="_新規シンボル" data-name="新規シンボル" viewBox="0 0 272.18 214.33">
      <g>
        <path class="cls-5" d="m206.67,109.28h1.01c.34,0,.68.06.72.57.03.23-.09.46-.3.56.23.15.26.2.26.57,0,.29.02.39.12.46v.07h-.34c-.04-.09-.06-.19-.06-.28-.03-.27.1-.68-.37-.68h-.74v.96h-.29v-2.25Zm.29.26v.77h.72c.2.03.38-.1.41-.3,0-.02,0-.03,0-.05.04-.38-.24-.43-.42-.43h-.72Z"/>
        <path class="cls-4" d="m76.03,117.96c-2.68-1.61-4.73-3.76-6.15-6.46-1.42-2.7-2.13-5.7-2.13-9,0-1.57.23-3.1.68-4.61.45-1.5,1.09-2.98,1.92-4.42l20.83-37.16,10.14,5.87-20.34,36.47c-.33.54-.57,1.12-.71,1.76-.15.64-.22,1.23-.22,1.76,0,1.73.58,3.25,1.73,4.54,1.15,1.3,2.7,1.95,4.64,1.95h30.73c1.73,0,3.16.56,4.3,1.67,1.13,1.11,1.7,2.51,1.7,4.2s-.57,3.03-1.7,4.14c-1.13,1.11-2.57,1.67-4.3,1.67h-31.47c-3.75,0-6.97-.8-9.64-2.41Zm23.77-32.77c-1.3-.74-2.13-1.9-2.5-3.46l-4.08-17.31-17.06,5.07c-1.52.49-2.94.37-4.23-.37s-2.13-1.85-2.5-3.34c-.45-1.44-.32-2.8.4-4.08.72-1.28,1.86-2.12,3.43-2.54l20.15-5.75c1.15-.33,2.2-.46,3.15-.4.95.06,1.85.36,2.72.9,1.61.95,2.72,2.56,3.34,4.82l5.13,20.4c.41,1.48.25,2.87-.49,4.14-.74,1.28-1.83,2.1-3.28,2.47-1.48.37-2.87.19-4.17-.56ZM138.47,15.39c-.62-1.07-1.42-1.85-2.41-2.35-.99-.5-2.02-.74-3.09-.74s-2.16.25-3.15.74c-.99.49-1.79,1.28-2.41,2.35l-15.76,28.32c-.87,1.48-2.06,2.44-3.59,2.87-1.52.43-3.05.24-4.57-.59-1.44-.82-2.36-1.99-2.75-3.49-.39-1.5-.13-3.06.77-4.67l16.2-28.93c1.69-2.93,3.92-5.14,6.68-6.65,2.76-1.5,5.65-2.26,8.66-2.26s5.83.74,8.59,2.23c2.76,1.48,4.97,3.71,6.61,6.68l21.7,38.82-10.08,5.87-21.39-38.21Zm-3.9,104.42c-1.61-1.61-2.41-3.36-2.41-5.25s.8-3.71,2.41-5.32l15.08-14.59c1.11-1.15,2.4-1.72,3.86-1.7,1.46.02,2.71.57,3.74,1.64,1.11,1.03,1.66,2.3,1.64,3.8-.02,1.5-.61,2.81-1.76,3.93l-12.92,12.24,12.92,12.18c1.15,1.11,1.74,2.41,1.76,3.89.02,1.48-.51,2.76-1.58,3.83-1.03,1.07-2.28,1.62-3.74,1.64-1.46.02-2.75-.51-3.86-1.58l-15.15-14.71Zm3.03-11.13h41.85c1.94,0,3.49-.65,4.67-1.95,1.17-1.3,1.76-2.81,1.76-4.54,0-.54-.08-1.12-.25-1.76-.17-.64-.41-1.23-.74-1.76l-14.96-26.77c-.83-1.44-1.01-2.95-.56-4.51.45-1.57,1.4-2.76,2.84-3.59,1.44-.82,2.93-1.05,4.45-.68,1.52.37,2.7,1.34,3.52,2.91l15.39,27.45c.87,1.48,1.51,2.97,1.95,4.45s.65,3.01.65,4.58c0,3.3-.71,6.29-2.13,9-1.42,2.7-3.48,4.85-6.18,6.46s-5.9,2.41-9.61,2.41h-42.66v-11.68Zm4.2-57.93c-1.53-.45-2.64-1.31-3.34-2.57-.7-1.26-.87-2.61-.49-4.05.41-1.48,1.27-2.59,2.57-3.31,1.3-.72,2.69-.86,4.17-.4l17.12,5.01,4.08-17.31c.37-1.57,1.2-2.71,2.47-3.43,1.28-.72,2.66-.9,4.14-.53,1.48.33,2.59,1.13,3.31,2.41.72,1.28.88,2.66.46,4.14l-5.07,20.4c-.62,2.23-1.73,3.83-3.34,4.82-.91.54-1.82.83-2.75.9-.93.06-1.97-.07-3.12-.4l-20.22-5.69Z"/>
        <g>
          <path class="cls-2" d="m0,213.43l10.34-58.55h23.46c6,0,10.7,1.47,14.09,4.4,3.39,2.93,5.08,7.03,5.08,12.29,0,.46-.01.94-.04,1.44-.03.5-.06.95-.09,1.35-.43,4.12-1.81,7.63-4.14,10.53-2.33,2.9-5.34,5.03-9.03,6.37l7.59,22.18h-14.76l-6.52-20.38c-.37,0-.74,0-1.12.02-.37.01-.76.02-1.16.02h-6l-3.56,20.33H0Zm22.6-47.78l-3.09,17.07h7.98c2.29,0,4.2-.35,5.75-1.05,1.54-.7,2.76-1.67,3.65-2.89.89-1.23,1.43-2.65,1.63-4.25.06-.26.1-.56.13-.92.03-.36.04-.69.04-1.01,0-1.66-.37-3-1.12-4.01-.74-1.01-1.74-1.76-3-2.23-1.26-.47-2.66-.71-4.2-.71h-7.76Z"/>
          <path class="cls-2" d="m67.49,212.27c-3.05-1.34-5.45-3.39-7.23-6.13-1.77-2.75-2.66-6.21-2.66-10.38,0-1.09.06-2.15.17-3.2.11-1.04.26-2.02.43-2.94l.69-3.99c.77-4.26,2.24-7.79,4.4-10.57,2.16-2.79,4.8-4.86,7.94-6.22,3.13-1.36,6.51-2.04,10.14-2.04,3,0,5.71.48,8.13,1.44,2.42.96,4.48,2.32,6.2,4.1,1.72,1.77,3,3.87,3.84,6.28.84,2.42,1.21,5.1,1.09,8.04-.06.63-.16,1.47-.3,2.53-.14,1.06-.4,2.45-.77,4.16h-28.4c-.11.46-.2,1.02-.26,1.69-.06.67-.09,1.25-.09,1.74,0,1.34.26,2.58.79,3.71.53,1.13,1.37,2.04,2.51,2.72,1.14.69,2.62,1.03,4.42,1.03,1.26,0,2.39-.19,3.41-.56,1.01-.37,1.86-.9,2.53-1.59.67-.69,1.12-1.52,1.35-2.49h12.78c-.31,2.6-1.35,5.01-3.11,7.23-1.76,2.22-4.15,4.01-7.16,5.38-3.02,1.37-6.56,2.06-10.62,2.06-3.77,0-7.19-.67-10.23-2.02Zm20.18-27.15c.03-.23.04-.44.04-.64.17-1.43.04-2.74-.39-3.92-.43-1.19-1.17-2.13-2.21-2.83-1.04-.7-2.38-1.05-4.01-1.05-1.34,0-2.57.27-3.67.82-1.1.54-2.04,1.37-2.81,2.49s-1.36,2.49-1.76,4.12c-.06.29-.11.58-.17.88-.06.3-.13.59-.21.88h15.1c.03-.26.06-.5.09-.73Z"/>
          <path class="cls-2" d="m112.51,173.93c1.4-2.2,3.5-3.94,6.28-5.21,2.79-1.27,6.26-1.91,10.4-1.91,3.75,0,7.04.56,9.89,1.69,2.85,1.13,5.05,2.68,6.63,4.65,1.57,1.97,2.36,4.22,2.36,6.73,0,.23,0,.49-.02.79-.02.3-.04.52-.06.67h-11.8c.03-.09.04-.21.04-.36v-.37c0-.77-.26-1.52-.79-2.25-.53-.73-1.29-1.34-2.29-1.82-1-.49-2.23-.73-3.69-.73-1.32,0-2.42.2-3.32.6s-1.59.94-2.06,1.61c-.47.67-.71,1.41-.71,2.21,0,1.23.5,2.17,1.5,2.83,1,.66,2.29,1.21,3.88,1.65,1.59.44,3.25.95,5,1.52,2.26.69,4.28,1.58,6.07,2.68s3.21,2.49,4.27,4.16c1.06,1.67,1.59,3.75,1.59,6.24s-.56,4.72-1.67,6.61c-1.12,1.89-2.64,3.45-4.57,4.7-1.93,1.24-4.12,2.17-6.56,2.79s-5.01.92-7.7.92c-2.43,0-4.81-.29-7.14-.86-2.33-.57-4.43-1.43-6.28-2.57-1.86-1.14-3.35-2.58-4.46-4.31-1.12-1.73-1.67-3.77-1.67-6.11,0-.23.01-.48.04-.75.03-.27.04-.49.04-.66h12.14c-.03.06-.04.18-.02.36.01.19.02.35.02.49.09,1.06.46,1.98,1.14,2.77.67.79,1.57,1.39,2.68,1.82s2.39.64,3.82.64,2.64-.2,3.62-.6c.99-.4,1.74-.94,2.25-1.63.51-.69.77-1.47.77-2.36,0-1.03-.36-1.86-1.07-2.49-.72-.63-1.69-1.17-2.94-1.61-1.24-.44-2.68-.92-4.31-1.44-1.34-.4-2.8-.92-4.35-1.54-1.56-.63-3.02-1.45-4.38-2.47-1.36-1.01-2.47-2.3-3.35-3.86-.87-1.56-1.31-3.45-1.31-5.68,0-2.83.7-5.35,2.1-7.55Z"/>
          <path class="cls-2" d="m159.31,212.59c-2.06-1.01-3.69-2.49-4.89-4.44-1.2-1.94-1.8-4.29-1.8-7.03,0-.11,0-.24.02-.36.01-.13.02-.25.02-.37.11-3.12.98-5.7,2.59-7.74,1.62-2.04,3.82-3.58,6.61-4.61s5.98-1.54,9.59-1.54h10.42l.56-3.17c.03-.17.05-.39.06-.64.01-.26.02-.5.02-.73,0-.92-.23-1.77-.69-2.57-.46-.8-1.14-1.44-2.04-1.91-.9-.47-2.04-.71-3.41-.71-1.14,0-2.14.17-2.98.51-.84.34-1.54.82-2.08,1.42s-.92,1.3-1.12,2.1h-12.83c.31-2.34,1.23-4.58,2.75-6.69s3.68-3.84,6.5-5.17c2.82-1.33,6.35-1.99,10.62-1.99,3.77,0,7.04.59,9.8,1.76s4.9,2.89,6.41,5.15c1.52,2.26,2.27,5.05,2.27,8.37,0,.6-.04,1.29-.13,2.06-.09.77-.2,1.54-.34,2.32l-4.76,26.85h-12.78l1.07-5.83h-.69c-.54,1.06-1.34,2.09-2.38,3.09-1.04,1-2.35,1.82-3.92,2.47-1.57.64-3.43.97-5.58.97-2.54,0-4.85-.51-6.91-1.52Zm7.68-10.49c.49.77,1.16,1.38,2.02,1.82.86.44,1.84.67,2.96.67,1.86,0,3.53-.55,5.02-1.65s2.39-2.52,2.7-4.27l.86-4.76h-7.25c-2.29,0-4.03.53-5.23,1.59-1.2,1.06-1.8,2.36-1.8,3.9,0,1.03.24,1.93.73,2.7Z"/>
          <path class="cls-2" d="m212.93,151.79h13.73l-10.89,61.64h-13.68l10.85-61.64Z"/>
          <path class="cls-2" d="m239.03,212.27c-3.05-1.34-5.46-3.39-7.23-6.13-1.77-2.75-2.66-6.21-2.66-10.38,0-1.09.06-2.15.17-3.2.11-1.04.26-2.02.43-2.94l.69-3.99c.77-4.26,2.24-7.79,4.4-10.57s4.8-4.86,7.94-6.22c3.13-1.36,6.51-2.04,10.14-2.04,3,0,5.71.48,8.13,1.44,2.42.96,4.48,2.32,6.2,4.1,1.71,1.77,3,3.87,3.84,6.28.84,2.42,1.21,5.1,1.09,8.04-.06.63-.16,1.47-.3,2.53-.14,1.06-.4,2.45-.77,4.16h-28.4c-.11.46-.2,1.02-.26,1.69-.06.67-.09,1.25-.09,1.74,0,1.34.26,2.58.79,3.71.53,1.13,1.37,2.04,2.51,2.72,1.14.69,2.62,1.03,4.42,1.03,1.26,0,2.39-.19,3.41-.56,1.01-.37,1.86-.9,2.53-1.59s1.12-1.52,1.35-2.49h12.78c-.31,2.6-1.35,5.01-3.11,7.23s-4.15,4.01-7.16,5.38c-3.02,1.37-6.56,2.06-10.62,2.06-3.77,0-7.18-.67-10.23-2.02Zm20.18-27.15c.03-.23.04-.44.04-.64.17-1.43.04-2.74-.39-3.92-.43-1.19-1.17-2.13-2.21-2.83-1.04-.7-2.38-1.05-4.01-1.05-1.34,0-2.57.27-3.67.82-1.1.54-2.04,1.37-2.81,2.49s-1.36,2.49-1.76,4.12c-.06.29-.11.58-.17.88-.06.3-.13.59-.21.88h15.1c.03-.26.06-.5.09-.73Z"/>
        </g>
      </g>
    </symbol>
    <pattern id="_新規パターンスウォッチ_1" data-name="新規パターンスウォッチ 1" x="0" y="0" width="453.28" height="488.66" patternTransform="translate(850.48 -181.54)" patternUnits="userSpaceOnUse" viewBox="0 0 453.28 488.66">
      <g>
        <rect class="cls-1" x="0" width="453.28" height="488.66"/>
        <g>
          <path class="cls-3" d="m393.22,377.29c-2.68-1.61-4.73-3.76-6.15-6.46-1.42-2.7-2.13-5.7-2.13-9,0-1.57.23-3.1.68-4.61.45-1.5,1.09-2.98,1.92-4.42l20.83-37.16,10.14,5.87-20.34,36.47c-.33.54-.57,1.12-.71,1.76-.15.64-.22,1.23-.22,1.76,0,1.73.58,3.25,1.73,4.54,1.15,1.3,2.7,1.95,4.64,1.95h30.73c1.73,0,3.16.56,4.3,1.67,1.13,1.11,1.7,2.51,1.7,4.2s-.57,3.03-1.7,4.14c-1.13,1.11-2.57,1.67-4.3,1.67h-31.47c-3.75,0-6.97-.8-9.64-2.41Zm23.77-32.77c-1.3-.74-2.13-1.9-2.5-3.46l-4.08-17.31-17.06,5.07c-1.52.49-2.94.37-4.23-.37s-2.13-1.85-2.5-3.34c-.45-1.44-.32-2.8.4-4.08.72-1.28,1.86-2.12,3.43-2.53l20.15-5.75c1.15-.33,2.2-.46,3.15-.4.95.06,1.85.36,2.72.9,1.61.95,2.72,2.56,3.34,4.82l5.13,20.4c.41,1.48.25,2.87-.49,4.14-.74,1.28-1.83,2.1-3.28,2.47-1.48.37-2.87.19-4.17-.56Zm38.67-69.8c-.62-1.07-1.42-1.85-2.41-2.35-.99-.49-2.02-.74-3.09-.74s-2.16.25-3.15.74c-.99.5-1.79,1.28-2.41,2.35l-15.76,28.31c-.87,1.48-2.06,2.44-3.59,2.88-1.52.43-3.05.24-4.57-.59-1.44-.82-2.36-1.99-2.75-3.49-.39-1.5-.13-3.06.77-4.67l16.2-28.93c1.69-2.93,3.92-5.14,6.68-6.65,2.76-1.5,5.65-2.26,8.66-2.26s5.83.74,8.59,2.23c2.76,1.48,4.97,3.71,6.61,6.68l21.7,38.82-10.08,5.87-21.39-38.21Zm-3.9,104.42c-1.61-1.61-2.41-3.36-2.41-5.25s.8-3.71,2.41-5.32l15.08-14.59c1.11-1.15,2.4-1.72,3.86-1.7,1.46.02,2.71.57,3.74,1.64,1.11,1.03,1.66,2.3,1.64,3.8-.02,1.5-.61,2.81-1.76,3.93l-12.92,12.24,12.92,12.18c1.15,1.11,1.74,2.41,1.76,3.89.02,1.48-.51,2.76-1.58,3.83-1.03,1.07-2.28,1.62-3.74,1.64-1.46.02-2.75-.51-3.86-1.58l-15.15-14.71Zm3.03-11.13h41.85c1.94,0,3.49-.65,4.67-1.95,1.17-1.3,1.76-2.81,1.76-4.54,0-.54-.08-1.12-.25-1.76-.17-.64-.41-1.23-.74-1.76l-14.96-26.77c-.83-1.44-1.01-2.95-.56-4.51.45-1.57,1.4-2.76,2.84-3.58,1.44-.82,2.93-1.05,4.45-.68,1.52.37,2.7,1.34,3.52,2.91l15.39,27.45c.87,1.48,1.51,2.97,1.95,4.45.43,1.48.65,3.01.65,4.57,0,3.3-.71,6.3-2.13,9-1.42,2.7-3.48,4.85-6.18,6.46s-5.9,2.41-9.61,2.41h-42.66v-11.68Zm4.2-57.93c-1.53-.45-2.64-1.31-3.34-2.57-.7-1.26-.87-2.61-.49-4.05.41-1.48,1.27-2.59,2.57-3.31,1.3-.72,2.69-.85,4.17-.4l17.12,5.01,4.08-17.31c.37-1.57,1.2-2.71,2.47-3.43,1.28-.72,2.66-.9,4.14-.53,1.48.33,2.59,1.13,3.31,2.41.72,1.28.88,2.66.46,4.14l-5.07,20.4c-.62,2.23-1.73,3.83-3.34,4.82-.91.54-1.82.83-2.75.9-.93.06-1.97-.07-3.12-.4l-20.22-5.69Z"/>
          <g>
            <path class="cls-3" d="m331.34,472.76l3.56-20.33h6c.4,0,.79,0,1.16-.02s.74-.02,1.12-.02l6.52,20.38h14.76l-7.59-22.18c3.69-1.34,6.7-3.47,9.03-6.37,2.33-2.9,3.71-6.41,4.14-10.53.03-.4.06-.85.09-1.35.03-.5.04-.98.04-1.44,0-5.26-1.69-9.36-5.08-12.29-3.39-2.93-8.08-4.4-14.09-4.4h-23.46l-10.34,58.55h14.15Zm16.21-47.79c1.54,0,2.94.24,4.2.71,1.26.47,2.26,1.21,3,2.23.74,1.01,1.12,2.35,1.12,4.01,0,.31-.01.65-.04,1.01-.03.36-.07.67-.13.92-.2,1.6-.74,3.02-1.63,4.25-.89,1.23-2.1,2.19-3.65,2.89-1.54.7-3.46,1.05-5.75,1.05h-7.98l3.09-17.07h7.76Z"/>
            <path class="cls-3" d="m394.91,473.62c4.06,0,7.6-.69,10.62-2.06,3.02-1.37,5.4-3.17,7.16-5.38,1.76-2.22,2.79-4.63,3.11-7.23h-12.78c-.23.97-.68,1.8-1.35,2.49-.67.69-1.52,1.21-2.53,1.59-1.02.37-2.15.56-3.41.56-1.8,0-3.27-.34-4.42-1.03-1.14-.69-1.98-1.59-2.51-2.72-.53-1.13-.79-2.37-.79-3.71,0-.49.03-1.07.09-1.74.06-.67.14-1.24.26-1.69h28.4c.37-1.72.63-3.1.77-4.16.14-1.06.24-1.9.3-2.53.11-2.95-.25-5.63-1.09-8.04-.84-2.42-2.12-4.51-3.84-6.29-1.72-1.77-3.78-3.14-6.2-4.1-2.42-.96-5.13-1.44-8.13-1.44-3.63,0-7.01.68-10.14,2.04-3.13,1.36-5.78,3.43-7.94,6.22-2.16,2.79-3.62,6.31-4.4,10.57l-.69,3.99c-.17.92-.31,1.89-.43,2.94-.11,1.04-.17,2.11-.17,3.2,0,4.18.89,7.64,2.66,10.38,1.77,2.75,4.18,4.79,7.23,6.13,3.04,1.34,6.46,2.02,10.23,2.02Zm9.87-28.44h-15.1c.09-.29.16-.58.21-.88.06-.3.11-.59.17-.88.4-1.63.99-3,1.76-4.12.77-1.12,1.71-1.94,2.81-2.49s2.32-.82,3.67-.82c1.63,0,2.97.35,4.01,1.05,1.04.7,1.78,1.65,2.21,2.83.43,1.19.56,2.5.39,3.92,0,.2-.01.42-.04.64s-.06.47-.09.73Z"/>
            <path class="cls-3" d="m427.59,440.81c0,2.23.44,4.12,1.31,5.68.87,1.56,1.99,2.85,3.35,3.86,1.36,1.02,2.82,1.84,4.38,2.46,1.56.63,3.01,1.14,4.35,1.54,1.63.52,3.07.99,4.31,1.44s2.22.98,2.94,1.61c.71.63,1.07,1.46,1.07,2.49,0,.89-.26,1.67-.77,2.36s-1.27,1.23-2.25,1.63-2.2.6-3.62.6-2.7-.21-3.82-.64c-1.12-.43-2.01-1.04-2.68-1.82-.67-.79-1.05-1.71-1.14-2.77,0-.14,0-.31-.02-.49-.01-.19,0-.31.02-.36h-12.14c0,.17-.01.39-.04.66-.03.27-.04.52-.04.75,0,2.35.56,4.38,1.67,6.11s2.6,3.17,4.46,4.31c1.86,1.14,3.95,2,6.28,2.57,2.33.57,4.71.86,7.14.86,2.69,0,5.25-.31,7.7-.92,2.45-.62,4.63-1.54,6.56-2.79s3.45-2.81,4.57-4.7c1.12-1.89,1.67-4.09,1.67-6.61s-.53-4.57-1.59-6.24c-1.06-1.67-2.48-3.06-4.27-4.16-1.79-1.1-3.81-2-6.07-2.68-1.75-.57-3.41-1.08-5-1.52-1.59-.44-2.88-.99-3.88-1.65-1-.66-1.5-1.6-1.5-2.83,0-.8.24-1.54.71-2.21s1.16-1.21,2.06-1.61c.9-.4,2.01-.6,3.32-.6,1.46,0,2.69.24,3.69.73,1,.49,1.77,1.09,2.29,1.82.53.73.79,1.48.79,2.25v.37c0,.16-.01.28-.04.36h11.8c.03-.14.05-.36.06-.66.01-.3.02-.56.02-.79,0-2.52-.79-4.76-2.36-6.73-1.57-1.97-3.78-3.53-6.63-4.65-2.85-1.13-6.14-1.7-9.89-1.7-4.15,0-7.61.64-10.4,1.91-2.79,1.27-4.88,3.01-6.28,5.21-1.4,2.2-2.1,4.72-2.1,7.55Z"/>
          </g>
        </g>
        <path class="cls-3" d="m166.58,499.45c-2.68-1.61-4.73-3.76-6.15-6.46-1.42-2.7-2.13-5.7-2.13-9,0-1.57.23-3.1.68-4.61.45-1.5,1.09-2.98,1.92-4.42l20.83-37.16,10.14,5.87-20.34,36.47c-.33.54-.57,1.12-.71,1.76-.15.64-.22,1.23-.22,1.76,0,1.73.58,3.25,1.73,4.54,1.15,1.3,2.7,1.95,4.64,1.95h30.73c1.73,0,3.16.56,4.3,1.67,1.13,1.11,1.7,2.51,1.7,4.2s-.57,3.03-1.7,4.14c-1.13,1.11-2.57,1.67-4.3,1.67h-31.47c-3.75,0-6.97-.8-9.64-2.41Zm23.77-32.77c-1.3-.74-2.13-1.9-2.5-3.46l-4.08-17.31-17.06,5.07c-1.52.49-2.94.37-4.23-.37s-2.13-1.85-2.5-3.34c-.45-1.44-.32-2.8.4-4.08.72-1.28,1.86-2.12,3.43-2.53l20.15-5.75c1.15-.33,2.2-.46,3.15-.4.95.06,1.85.36,2.72.9,1.61.95,2.72,2.56,3.34,4.82l5.13,20.4c.41,1.48.25,2.87-.49,4.14-.74,1.28-1.83,2.1-3.28,2.47-1.48.37-2.87.19-4.17-.56Zm38.67-69.8c-.62-1.07-1.42-1.85-2.41-2.35-.99-.49-2.02-.74-3.09-.74s-2.16.25-3.15.74c-.99.5-1.79,1.28-2.41,2.35l-15.76,28.31c-.87,1.48-2.06,2.44-3.59,2.88-1.52.43-3.05.24-4.57-.59-1.44-.82-2.36-1.99-2.75-3.49-.39-1.5-.13-3.06.77-4.67l16.2-28.93c1.69-2.93,3.92-5.14,6.68-6.65,2.76-1.5,5.65-2.26,8.66-2.26s5.83.74,8.59,2.23c2.76,1.48,4.97,3.71,6.61,6.68l21.7,38.82-10.08,5.87-21.39-38.21Zm-3.9,104.42c-1.61-1.61-2.41-3.36-2.41-5.25s.8-3.71,2.41-5.32l15.08-14.59c1.11-1.15,2.4-1.72,3.86-1.7,1.46.02,2.71.57,3.74,1.64,1.11,1.03,1.66,2.3,1.64,3.8-.02,1.5-.61,2.81-1.76,3.93l-12.92,12.24,12.92,12.18c1.15,1.11,1.74,2.41,1.76,3.89.02,1.48-.51,2.76-1.58,3.83-1.03,1.07-2.28,1.62-3.74,1.64-1.46.02-2.75-.51-3.86-1.58l-15.15-14.71Zm3.03-11.13h41.85c1.94,0,3.49-.65,4.67-1.95,1.17-1.3,1.76-2.81,1.76-4.54,0-.54-.08-1.12-.25-1.76-.17-.64-.41-1.23-.74-1.76l-14.96-26.77c-.83-1.44-1.01-2.95-.56-4.51.45-1.57,1.4-2.76,2.84-3.58,1.44-.82,2.93-1.05,4.45-.68,1.52.37,2.7,1.34,3.52,2.91l15.39,27.45c.87,1.48,1.51,2.97,1.95,4.45.43,1.48.65,3.01.65,4.57,0,3.3-.71,6.3-2.13,9-1.42,2.7-3.48,4.85-6.18,6.46s-5.9,2.41-9.61,2.41h-42.66v-11.68Zm4.2-57.93c-1.53-.45-2.64-1.31-3.34-2.57-.7-1.26-.87-2.61-.49-4.05.41-1.48,1.27-2.59,2.57-3.31,1.3-.72,2.69-.85,4.17-.4l17.12,5.01,4.08-17.31c.37-1.57,1.2-2.71,2.47-3.43,1.28-.72,2.66-.9,4.14-.53,1.48.33,2.59,1.13,3.31,2.41.72,1.28.88,2.66.46,4.14l-5.07,20.4c-.62,2.23-1.73,3.83-3.34,4.82-.91.54-1.82.83-2.75.9-.93.06-1.97-.07-3.12-.4l-20.22-5.69Z"/>
        <g>
          <path class="cls-3" d="m70.58,370.86h.29v-.96h.74c.47,0,.34.42.37.68,0,.1.03.19.06.28h.34v-.07c-.1-.07-.12-.18-.12-.46,0-.37-.03-.43-.26-.57.21-.11.33-.33.3-.56-.03-.51-.37-.57-.72-.57h-1.01v2.25Zm1-1.99c.18,0,.46.04.42.43,0,.02,0,.03,0,.05-.03.2-.22.33-.41.3h-.72v-.77h.72Z"/>
          <path class="cls-3" d="m-60.06,377.29c-2.68-1.61-4.73-3.76-6.15-6.46-1.42-2.7-2.13-5.7-2.13-9,0-1.57.23-3.1.68-4.61.45-1.5,1.09-2.98,1.92-4.42l20.83-37.16,10.14,5.87-20.34,36.47c-.33.54-.57,1.12-.71,1.76-.15.64-.22,1.23-.22,1.76,0,1.73.58,3.25,1.73,4.54,1.15,1.3,2.7,1.95,4.64,1.95h30.73c1.73,0,3.16.56,4.3,1.67,1.13,1.11,1.7,2.51,1.7,4.2s-.57,3.03-1.7,4.14c-1.13,1.11-2.57,1.67-4.3,1.67h-31.47c-3.75,0-6.97-.8-9.64-2.41Zm23.77-32.77c-1.3-.74-2.13-1.9-2.5-3.46l-4.08-17.31-17.06,5.07c-1.52.49-2.94.37-4.23-.37s-2.13-1.85-2.5-3.34c-.45-1.44-.32-2.8.4-4.08.72-1.28,1.86-2.12,3.43-2.53l20.15-5.75c1.15-.33,2.2-.46,3.15-.4.95.06,1.85.36,2.72.9,1.61.95,2.72,2.56,3.34,4.82l5.13,20.4c.41,1.48.25,2.87-.49,4.14-.74,1.28-1.83,2.1-3.28,2.47-1.48.37-2.87.19-4.17-.56ZM2.38,274.73c-.62-1.07-1.42-1.85-2.41-2.35-.99-.49-2.02-.74-3.09-.74s-2.16.25-3.15.74c-.99.5-1.79,1.28-2.41,2.35l-15.76,28.31c-.87,1.48-2.06,2.44-3.59,2.88-1.52.43-3.05.24-4.57-.59-1.44-.82-2.36-1.99-2.75-3.49-.39-1.5-.13-3.06.77-4.67l16.2-28.93c1.69-2.93,3.92-5.14,6.68-6.65,2.76-1.5,5.65-2.26,8.66-2.26s5.83.74,8.59,2.23c2.76,1.48,4.97,3.71,6.61,6.68l21.7,38.82-10.08,5.87-21.39-38.21Zm-3.9,104.42c-1.61-1.61-2.41-3.36-2.41-5.25s.8-3.71,2.41-5.32l15.08-14.59c1.11-1.15,2.4-1.72,3.86-1.7,1.46.02,2.71.57,3.74,1.64,1.11,1.03,1.66,2.3,1.64,3.8-.02,1.5-.61,2.81-1.76,3.93l-12.92,12.24,12.92,12.18c1.15,1.11,1.74,2.41,1.76,3.89.02,1.48-.51,2.76-1.58,3.83-1.03,1.07-2.28,1.62-3.74,1.64-1.46.02-2.75-.51-3.86-1.58l-15.15-14.71Zm3.03-11.13h41.85c1.94,0,3.49-.65,4.67-1.95,1.17-1.3,1.76-2.81,1.76-4.54,0-.54-.08-1.12-.25-1.76-.17-.64-.41-1.23-.74-1.76l-14.96-26.77c-.83-1.44-1.01-2.95-.56-4.51.45-1.57,1.4-2.76,2.84-3.58,1.44-.82,2.93-1.05,4.45-.68,1.52.37,2.7,1.34,3.52,2.91l15.39,27.45c.87,1.48,1.51,2.97,1.95,4.45.43,1.48.65,3.01.65,4.57,0,3.3-.71,6.3-2.13,9-1.42,2.7-3.48,4.85-6.18,6.46s-5.9,2.41-9.61,2.41H1.52v-11.68Zm4.2-57.93c-1.53-.45-2.64-1.31-3.34-2.57-.7-1.26-.87-2.61-.49-4.05.41-1.48,1.27-2.59,2.57-3.31,1.3-.72,2.69-.85,4.17-.4l17.12,5.01,4.08-17.31c.37-1.57,1.2-2.71,2.47-3.43,1.28-.72,2.66-.9,4.14-.53,1.48.33,2.59,1.13,3.31,2.41.72,1.28.88,2.66.46,4.14l-5.07,20.4c-.62,2.23-1.73,3.83-3.34,4.82-.91.54-1.82.83-2.75.9-.93.06-1.97-.07-3.12-.4l-20.22-5.69Z"/>
          <g>
            <path class="cls-3" d="m-25.68,440.81c0,2.23.44,4.12,1.31,5.68.87,1.56,1.99,2.85,3.35,3.86,1.36,1.02,2.82,1.84,4.38,2.46,1.56.63,3.01,1.14,4.35,1.54,1.63.52,3.07.99,4.31,1.44s2.22.98,2.94,1.61c.71.63,1.07,1.46,1.07,2.49,0,.89-.26,1.67-.77,2.36s-1.27,1.23-2.25,1.63-2.2.6-3.62.6-2.7-.21-3.82-.64c-1.12-.43-2.01-1.04-2.68-1.82-.67-.79-1.05-1.71-1.14-2.77,0-.14,0-.31-.02-.49-.01-.19,0-.31.02-.36h-12.14c0,.17-.01.39-.04.66-.03.27-.04.52-.04.75,0,2.35.56,4.38,1.67,6.11s2.6,3.17,4.46,4.31c1.86,1.14,3.95,2,6.28,2.57,2.33.57,4.71.86,7.14.86,2.69,0,5.25-.31,7.7-.92,2.45-.62,4.63-1.54,6.56-2.79s3.45-2.81,4.57-4.7c1.12-1.89,1.67-4.09,1.67-6.61s-.53-4.57-1.59-6.24c-1.06-1.67-2.48-3.06-4.27-4.16-1.79-1.1-3.81-2-6.07-2.68-1.75-.57-3.41-1.08-5-1.52-1.59-.44-2.88-.99-3.88-1.65-1-.66-1.5-1.6-1.5-2.83,0-.8.24-1.54.71-2.21s1.16-1.21,2.06-1.61c.9-.4,2.01-.6,3.32-.6,1.46,0,2.69.24,3.69.73,1,.49,1.77,1.09,2.29,1.82.53.73.79,1.48.79,2.25v.37c0,.16-.01.28-.04.36h11.8c.03-.14.05-.36.06-.66.01-.3.02-.56.02-.79,0-2.52-.79-4.76-2.36-6.73-1.57-1.97-3.78-3.53-6.63-4.65-2.85-1.13-6.14-1.7-9.89-1.7-4.15,0-7.61.64-10.4,1.91-2.79,1.27-4.88,3.01-6.28,5.21-1.4,2.2-2.1,4.72-2.1,7.55Z"/>
            <path class="cls-3" d="m30.12,473.45c2.15,0,4-.32,5.58-.96,1.57-.64,2.88-1.46,3.92-2.47,1.04-1,1.84-2.03,2.38-3.09h.69l-1.07,5.83h12.78l4.76-26.85c.14-.77.26-1.54.34-2.32.09-.77.13-1.46.13-2.06,0-3.32-.76-6.11-2.27-8.37-1.52-2.26-3.65-3.97-6.41-5.15-2.76-1.17-6.03-1.76-9.8-1.76-4.26,0-7.8.66-10.62,1.99-2.82,1.33-4.98,3.05-6.5,5.17-1.52,2.12-2.43,4.35-2.75,6.69h12.83c.2-.8.57-1.5,1.12-2.1.54-.6,1.24-1.07,2.08-1.42.84-.34,1.84-.52,2.98-.52,1.37,0,2.51.24,3.41.71.9.47,1.58,1.11,2.04,1.91.46.8.69,1.66.69,2.57,0,.23,0,.47-.02.73-.02.26-.04.47-.06.64l-.56,3.17h-10.42c-3.6,0-6.8.51-9.59,1.54s-4.99,2.57-6.61,4.61c-1.62,2.04-2.48,4.63-2.59,7.74,0,.12,0,.24-.02.37-.01.13-.02.25-.02.37,0,2.74.6,5.09,1.8,7.03,1.2,1.95,2.83,3.43,4.89,4.44,2.06,1.02,4.36,1.52,6.91,1.52Zm.04-14.71c0-1.54.6-2.84,1.8-3.9s2.95-1.59,5.23-1.59h7.25l-.86,4.76c-.32,1.74-1.22,3.17-2.7,4.27-1.49,1.1-3.16,1.65-5.02,1.65-1.12,0-2.1-.22-2.96-.67-.86-.44-1.53-1.05-2.02-1.82s-.73-1.67-.73-2.7Z"/>
            <path class="cls-3" d="m65.98,472.76h13.68l10.89-61.64h-13.73l-10.85,61.64Z"/>
            <path class="cls-3" d="m113.17,473.62c4.06,0,7.6-.69,10.62-2.06,3.02-1.37,5.4-3.17,7.16-5.38,1.76-2.22,2.79-4.63,3.11-7.23h-12.78c-.23.97-.68,1.8-1.35,2.49-.67.69-1.52,1.21-2.53,1.59-1.02.37-2.15.56-3.41.56-1.8,0-3.27-.34-4.42-1.03-1.14-.69-1.98-1.59-2.51-2.72-.53-1.13-.79-2.37-.79-3.71,0-.49.03-1.07.09-1.74.06-.67.14-1.24.26-1.69h28.4c.37-1.72.63-3.1.77-4.16.14-1.06.24-1.9.3-2.53.11-2.95-.25-5.63-1.09-8.04-.84-2.42-2.12-4.51-3.84-6.29-1.72-1.77-3.78-3.14-6.2-4.1-2.42-.96-5.13-1.44-8.13-1.44-3.63,0-7.01.68-10.14,2.04-3.13,1.36-5.78,3.43-7.94,6.22-2.16,2.79-3.62,6.31-4.4,10.57l-.69,3.99c-.17.92-.31,1.89-.43,2.94-.11,1.04-.17,2.11-.17,3.2,0,4.18.89,7.64,2.66,10.38,1.77,2.75,4.18,4.79,7.23,6.13,3.04,1.34,6.46,2.02,10.23,2.02Zm9.87-28.44h-15.1c.09-.29.16-.58.21-.88s.11-.59.17-.88c.4-1.63.99-3,1.76-4.12s1.71-1.94,2.81-2.49c1.1-.54,2.32-.82,3.67-.82,1.63,0,2.97.35,4.01,1.05,1.04.7,1.78,1.65,2.21,2.83.43,1.19.56,2.5.39,3.92,0,.2-.01.42-.04.64-.03.23-.06.47-.09.73Z"/>
          </g>
        </g>
        <g>
          <path class="cls-3" d="m393.22,132.96c-2.68-1.61-4.73-3.76-6.15-6.46-1.42-2.7-2.13-5.7-2.13-9,0-1.57.23-3.1.68-4.61.45-1.5,1.09-2.98,1.92-4.42l20.83-37.16,10.14,5.87-20.34,36.47c-.33.54-.57,1.12-.71,1.76-.15.64-.22,1.23-.22,1.76,0,1.73.58,3.25,1.73,4.54,1.15,1.3,2.7,1.95,4.64,1.95h30.73c1.73,0,3.16.56,4.3,1.67,1.13,1.11,1.7,2.51,1.7,4.2s-.57,3.03-1.7,4.14c-1.13,1.11-2.57,1.67-4.3,1.67h-31.47c-3.75,0-6.97-.8-9.64-2.41Zm23.77-32.77c-1.3-.74-2.13-1.9-2.5-3.46l-4.08-17.31-17.06,5.07c-1.52.49-2.94.37-4.23-.37s-2.13-1.85-2.5-3.34c-.45-1.44-.32-2.8.4-4.08.72-1.28,1.86-2.12,3.43-2.53l20.15-5.75c1.15-.33,2.2-.46,3.15-.4.95.06,1.85.36,2.72.9,1.61.95,2.72,2.56,3.34,4.82l5.13,20.4c.41,1.48.25,2.87-.49,4.14-.74,1.28-1.83,2.1-3.28,2.47-1.48.37-2.87.19-4.17-.56Zm38.67-69.8c-.62-1.07-1.42-1.85-2.41-2.35-.99-.49-2.02-.74-3.09-.74s-2.16.25-3.15.74c-.99.5-1.79,1.28-2.41,2.35l-15.76,28.31c-.87,1.48-2.06,2.44-3.59,2.88-1.52.43-3.05.24-4.57-.59-1.44-.82-2.36-1.99-2.75-3.49-.39-1.5-.13-3.06.77-4.67l16.2-28.93c1.69-2.93,3.92-5.14,6.68-6.65,2.76-1.5,5.65-2.26,8.66-2.26s5.83.74,8.59,2.23c2.76,1.48,4.97,3.71,6.61,6.68l21.7,38.82-10.08,5.87-21.39-38.21Zm-3.9,104.42c-1.61-1.61-2.41-3.36-2.41-5.25s.8-3.71,2.41-5.32l15.08-14.59c1.11-1.15,2.4-1.72,3.86-1.7,1.46.02,2.71.57,3.74,1.64,1.11,1.03,1.66,2.3,1.64,3.8-.02,1.5-.61,2.81-1.76,3.93l-12.92,12.24,12.92,12.18c1.15,1.11,1.74,2.41,1.76,3.89.02,1.48-.51,2.76-1.58,3.83-1.03,1.07-2.28,1.62-3.74,1.64-1.46.02-2.75-.51-3.86-1.58l-15.15-14.71Zm3.03-11.13h41.85c1.94,0,3.49-.65,4.67-1.95,1.17-1.3,1.76-2.81,1.76-4.54,0-.54-.08-1.12-.25-1.76-.17-.64-.41-1.23-.74-1.76l-14.96-26.77c-.83-1.44-1.01-2.95-.56-4.51.45-1.57,1.4-2.76,2.84-3.58,1.44-.82,2.93-1.05,4.45-.68,1.52.37,2.7,1.34,3.52,2.91l15.39,27.45c.87,1.48,1.51,2.97,1.95,4.45.43,1.48.65,3.01.65,4.57,0,3.3-.71,6.3-2.13,9-1.42,2.7-3.48,4.85-6.18,6.46s-5.9,2.41-9.61,2.41h-42.66v-11.68Zm4.2-57.93c-1.53-.45-2.64-1.31-3.34-2.57-.7-1.26-.87-2.61-.49-4.05.41-1.48,1.27-2.59,2.57-3.31,1.3-.72,2.69-.85,4.17-.4l17.12,5.01,4.08-17.31c.37-1.57,1.2-2.71,2.47-3.43,1.28-.72,2.66-.9,4.14-.53,1.48.33,2.59,1.13,3.31,2.41.72,1.28.88,2.66.46,4.14l-5.07,20.4c-.62,2.23-1.73,3.83-3.34,4.82-.91.54-1.82.83-2.75.9-.93.06-1.97-.07-3.12-.4l-20.22-5.69Z"/>
          <g>
            <path class="cls-3" d="m331.34,228.43l3.56-20.33h6c.4,0,.79,0,1.16-.02s.74-.02,1.12-.02l6.52,20.38h14.76l-7.59-22.18c3.69-1.34,6.7-3.47,9.03-6.37,2.33-2.9,3.71-6.41,4.14-10.53.03-.4.06-.85.09-1.35.03-.5.04-.98.04-1.44,0-5.26-1.69-9.36-5.08-12.29-3.39-2.93-8.08-4.4-14.09-4.4h-23.46l-10.34,58.55h14.15Zm16.21-47.79c1.54,0,2.94.24,4.2.71,1.26.47,2.26,1.21,3,2.23.74,1.01,1.12,2.35,1.12,4.01,0,.31-.01.65-.04,1.01-.03.36-.07.67-.13.92-.2,1.6-.74,3.02-1.63,4.25-.89,1.23-2.1,2.19-3.65,2.89-1.54.7-3.46,1.05-5.75,1.05h-7.98l3.09-17.07h7.76Z"/>
            <path class="cls-3" d="m394.91,229.29c4.06,0,7.6-.69,10.62-2.06,3.02-1.37,5.4-3.17,7.16-5.38,1.76-2.22,2.79-4.63,3.11-7.23h-12.78c-.23.97-.68,1.8-1.35,2.49-.67.69-1.52,1.21-2.53,1.59-1.02.37-2.15.56-3.41.56-1.8,0-3.27-.34-4.42-1.03-1.14-.69-1.98-1.59-2.51-2.72-.53-1.13-.79-2.37-.79-3.71,0-.49.03-1.07.09-1.74.06-.67.14-1.24.26-1.69h28.4c.37-1.72.63-3.1.77-4.16.14-1.06.24-1.9.3-2.53.11-2.95-.25-5.63-1.09-8.04-.84-2.42-2.12-4.51-3.84-6.29-1.72-1.77-3.78-3.14-6.2-4.1-2.42-.96-5.13-1.44-8.13-1.44-3.63,0-7.01.68-10.14,2.04-3.13,1.36-5.78,3.43-7.94,6.22-2.16,2.79-3.62,6.31-4.4,10.57l-.69,3.99c-.17.92-.31,1.89-.43,2.94-.11,1.04-.17,2.11-.17,3.2,0,4.18.89,7.64,2.66,10.38,1.77,2.75,4.18,4.79,7.23,6.13,3.04,1.34,6.46,2.02,10.23,2.02Zm9.87-28.44h-15.1c.09-.29.16-.58.21-.88.06-.3.11-.59.17-.88.4-1.63.99-3,1.76-4.12.77-1.12,1.71-1.94,2.81-2.49s2.32-.82,3.67-.82c1.63,0,2.97.35,4.01,1.05,1.04.7,1.78,1.65,2.21,2.83.43,1.19.56,2.5.39,3.92,0,.2-.01.42-.04.64s-.06.47-.09.73Z"/>
            <path class="cls-3" d="m427.59,196.47c0,2.23.44,4.12,1.31,5.68.87,1.56,1.99,2.85,3.35,3.86,1.36,1.02,2.82,1.84,4.38,2.46,1.56.63,3.01,1.14,4.35,1.54,1.63.52,3.07.99,4.31,1.44s2.22.98,2.94,1.61c.71.63,1.07,1.46,1.07,2.49,0,.89-.26,1.67-.77,2.36s-1.27,1.23-2.25,1.63-2.2.6-3.62.6-2.7-.21-3.82-.64c-1.12-.43-2.01-1.04-2.68-1.82-.67-.79-1.05-1.71-1.14-2.77,0-.14,0-.31-.02-.49-.01-.19,0-.31.02-.36h-12.14c0,.17-.01.39-.04.66-.03.27-.04.52-.04.75,0,2.35.56,4.38,1.67,6.11s2.6,3.17,4.46,4.31c1.86,1.14,3.95,2,6.28,2.57,2.33.57,4.71.86,7.14.86,2.69,0,5.25-.31,7.7-.92,2.45-.62,4.63-1.54,6.56-2.79s3.45-2.81,4.57-4.7c1.12-1.89,1.67-4.09,1.67-6.61s-.53-4.57-1.59-6.24c-1.06-1.67-2.48-3.06-4.27-4.16-1.79-1.1-3.81-2-6.07-2.68-1.75-.57-3.41-1.08-5-1.52-1.59-.44-2.88-.99-3.88-1.65-1-.66-1.5-1.6-1.5-2.83,0-.8.24-1.54.71-2.21s1.16-1.21,2.06-1.61c.9-.4,2.01-.6,3.32-.6,1.46,0,2.69.24,3.69.73,1,.49,1.77,1.09,2.29,1.82.53.73.79,1.48.79,2.25v.37c0,.16-.01.28-.04.36h11.8c.03-.14.05-.36.06-.66.01-.3.02-.56.02-.79,0-2.52-.79-4.76-2.36-6.73-1.57-1.97-3.78-3.53-6.63-4.65-2.85-1.13-6.14-1.7-9.89-1.7-4.15,0-7.61.64-10.4,1.91-2.79,1.27-4.88,3.01-6.28,5.21-1.4,2.2-2.1,4.72-2.1,7.55Z"/>
          </g>
        </g>
        <g>
          <path class="cls-3" d="m297.22,248.69h.29v-.96h.74c.47,0,.34.42.37.68,0,.1.03.19.06.28h.34v-.07c-.1-.07-.12-.18-.12-.46,0-.37-.03-.43-.26-.57.21-.11.33-.33.3-.56-.03-.51-.37-.57-.72-.57h-1.01v2.25Zm1-1.99c.18,0,.46.04.42.43,0,.02,0,.03,0,.05-.03.2-.22.33-.41.3h-.72v-.77h.72Z"/>
          <path class="cls-3" d="m166.58,255.12c-2.68-1.61-4.73-3.76-6.15-6.46-1.42-2.7-2.13-5.7-2.13-9,0-1.57.23-3.1.68-4.61.45-1.5,1.09-2.98,1.92-4.42l20.83-37.16,10.14,5.87-20.34,36.47c-.33.54-.57,1.12-.71,1.76-.15.64-.22,1.23-.22,1.76,0,1.73.58,3.25,1.73,4.54,1.15,1.3,2.7,1.95,4.64,1.95h30.73c1.73,0,3.16.56,4.3,1.67,1.13,1.11,1.7,2.51,1.7,4.2s-.57,3.03-1.7,4.14c-1.13,1.11-2.57,1.67-4.3,1.67h-31.47c-3.75,0-6.97-.8-9.64-2.41Zm23.77-32.77c-1.3-.74-2.13-1.9-2.5-3.46l-4.08-17.31-17.06,5.07c-1.52.49-2.94.37-4.23-.37s-2.13-1.85-2.5-3.34c-.45-1.44-.32-2.8.4-4.08.72-1.28,1.86-2.12,3.43-2.53l20.15-5.75c1.15-.33,2.2-.46,3.15-.4.95.06,1.85.36,2.72.9,1.61.95,2.72,2.56,3.34,4.82l5.13,20.4c.41,1.48.25,2.87-.49,4.14-.74,1.28-1.83,2.1-3.28,2.47-1.48.37-2.87.19-4.17-.56Zm38.67-69.8c-.62-1.07-1.42-1.85-2.41-2.35-.99-.49-2.02-.74-3.09-.74s-2.16.25-3.15.74c-.99.5-1.79,1.28-2.41,2.35l-15.76,28.31c-.87,1.48-2.06,2.44-3.59,2.88-1.52.43-3.05.24-4.57-.59-1.44-.82-2.36-1.99-2.75-3.49-.39-1.5-.13-3.06.77-4.67l16.2-28.93c1.69-2.93,3.92-5.14,6.68-6.65,2.76-1.5,5.65-2.26,8.66-2.26s5.83.74,8.59,2.23c2.76,1.48,4.97,3.71,6.61,6.68l21.7,38.82-10.08,5.87-21.39-38.21Zm-3.9,104.42c-1.61-1.61-2.41-3.36-2.41-5.25s.8-3.71,2.41-5.32l15.08-14.59c1.11-1.15,2.4-1.72,3.86-1.7,1.46.02,2.71.57,3.74,1.64,1.11,1.03,1.66,2.3,1.64,3.8-.02,1.5-.61,2.81-1.76,3.93l-12.92,12.24,12.92,12.18c1.15,1.11,1.74,2.41,1.76,3.89.02,1.48-.51,2.76-1.58,3.83-1.03,1.07-2.28,1.62-3.74,1.64-1.46.02-2.75-.51-3.86-1.58l-15.15-14.71Zm3.03-11.13h41.85c1.94,0,3.49-.65,4.67-1.95,1.17-1.3,1.76-2.81,1.76-4.54,0-.54-.08-1.12-.25-1.76-.17-.64-.41-1.23-.74-1.76l-14.96-26.77c-.83-1.44-1.01-2.95-.56-4.51.45-1.57,1.4-2.76,2.84-3.58,1.44-.82,2.93-1.05,4.45-.68,1.52.37,2.7,1.34,3.52,2.91l15.39,27.45c.87,1.48,1.51,2.97,1.95,4.45.43,1.48.65,3.01.65,4.57,0,3.3-.71,6.3-2.13,9-1.42,2.7-3.48,4.85-6.18,6.46s-5.9,2.41-9.61,2.41h-42.66v-11.68Zm4.2-57.93c-1.53-.45-2.64-1.31-3.34-2.57-.7-1.26-.87-2.61-.49-4.05.41-1.48,1.27-2.59,2.57-3.31,1.3-.72,2.69-.85,4.17-.4l17.12,5.01,4.08-17.31c.37-1.57,1.2-2.71,2.47-3.43,1.28-.72,2.66-.9,4.14-.53,1.48.33,2.59,1.13,3.31,2.41.72,1.28.88,2.66.46,4.14l-5.07,20.4c-.62,2.23-1.73,3.83-3.34,4.82-.91.54-1.82.83-2.75.9-.93.06-1.97-.07-3.12-.4l-20.22-5.69Z"/>
          <g>
            <path class="cls-3" d="m104.7,350.6l3.56-20.33h6c.4,0,.79,0,1.16-.02s.74-.02,1.12-.02l6.52,20.38h14.76l-7.59-22.18c3.69-1.34,6.7-3.47,9.03-6.37,2.33-2.9,3.71-6.41,4.14-10.53.03-.4.06-.85.09-1.35.03-.5.04-.98.04-1.44,0-5.26-1.69-9.36-5.08-12.29-3.39-2.93-8.08-4.4-14.09-4.4h-23.46l-10.34,58.55h14.15Zm16.21-47.79c1.54,0,2.94.24,4.2.71,1.26.47,2.26,1.21,3,2.23.74,1.01,1.12,2.35,1.12,4.01,0,.31-.01.65-.04,1.01-.03.36-.07.67-.13.92-.2,1.6-.74,3.02-1.63,4.25-.89,1.23-2.1,2.19-3.65,2.89-1.54.7-3.46,1.05-5.75,1.05h-7.98l3.09-17.07h7.76Z"/>
            <path class="cls-3" d="m168.27,351.45c4.06,0,7.6-.69,10.62-2.06,3.02-1.37,5.4-3.17,7.16-5.38,1.76-2.22,2.79-4.63,3.11-7.23h-12.78c-.23.97-.68,1.8-1.35,2.49-.67.69-1.52,1.21-2.53,1.59-1.02.37-2.15.56-3.41.56-1.8,0-3.27-.34-4.42-1.03-1.14-.69-1.98-1.59-2.51-2.72-.53-1.13-.79-2.37-.79-3.71,0-.49.03-1.07.09-1.74.06-.67.14-1.24.26-1.69h28.4c.37-1.72.63-3.1.77-4.16.14-1.06.24-1.9.3-2.53.11-2.95-.25-5.63-1.09-8.04-.84-2.42-2.12-4.51-3.84-6.29-1.72-1.77-3.78-3.14-6.2-4.1-2.42-.96-5.13-1.44-8.13-1.44-3.63,0-7.01.68-10.14,2.04-3.13,1.36-5.78,3.43-7.94,6.22-2.16,2.79-3.62,6.31-4.4,10.57l-.69,3.99c-.17.92-.31,1.89-.43,2.94-.11,1.04-.17,2.11-.17,3.2,0,4.18.89,7.64,2.66,10.38,1.77,2.75,4.18,4.79,7.23,6.13,3.04,1.34,6.46,2.02,10.23,2.02Zm9.87-28.44h-15.1c.09-.29.16-.58.21-.88.06-.3.11-.59.17-.88.4-1.63.99-3,1.76-4.12.77-1.12,1.71-1.94,2.81-2.49s2.32-.82,3.67-.82c1.63,0,2.97.35,4.01,1.05,1.04.7,1.78,1.65,2.21,2.83.43,1.19.56,2.5.39,3.92,0,.2-.01.42-.04.64s-.06.47-.09.73Z"/>
            <path class="cls-3" d="m200.96,318.64c0,2.23.44,4.12,1.31,5.68.87,1.56,1.99,2.85,3.35,3.86,1.36,1.02,2.82,1.84,4.38,2.46,1.56.63,3.01,1.14,4.35,1.54,1.63.52,3.07.99,4.31,1.44s2.22.98,2.94,1.61c.71.63,1.07,1.46,1.07,2.49,0,.89-.26,1.67-.77,2.36s-1.27,1.23-2.25,1.63-2.2.6-3.62.6-2.7-.21-3.82-.64c-1.12-.43-2.01-1.04-2.68-1.82-.67-.79-1.05-1.71-1.14-2.77,0-.14,0-.31-.02-.49-.01-.19,0-.31.02-.36h-12.14c0,.17-.01.39-.04.66-.03.27-.04.52-.04.75,0,2.35.56,4.38,1.67,6.11s2.6,3.17,4.46,4.31c1.86,1.14,3.95,2,6.28,2.57,2.33.57,4.71.86,7.14.86,2.69,0,5.25-.31,7.7-.92,2.45-.62,4.63-1.54,6.56-2.79s3.45-2.81,4.57-4.7c1.12-1.89,1.67-4.09,1.67-6.61s-.53-4.57-1.59-6.24c-1.06-1.67-2.48-3.06-4.27-4.16-1.79-1.1-3.81-2-6.07-2.68-1.75-.57-3.41-1.08-5-1.52-1.59-.44-2.88-.99-3.88-1.65-1-.66-1.5-1.6-1.5-2.83,0-.8.24-1.54.71-2.21s1.16-1.21,2.06-1.61c.9-.4,2.01-.6,3.32-.6,1.46,0,2.69.24,3.69.73,1,.49,1.77,1.09,2.29,1.82.53.73.79,1.48.79,2.25v.37c0,.16-.01.28-.04.36h11.8c.03-.14.05-.36.06-.66.01-.3.02-.56.02-.79,0-2.52-.79-4.76-2.36-6.73-1.57-1.97-3.78-3.53-6.63-4.65-2.85-1.13-6.14-1.7-9.89-1.7-4.15,0-7.61.64-10.4,1.91-2.79,1.27-4.88,3.01-6.28,5.21-1.4,2.2-2.1,4.72-2.1,7.55Z"/>
            <path class="cls-3" d="m256.76,351.28c2.15,0,4-.32,5.58-.96,1.57-.64,2.88-1.46,3.92-2.47,1.04-1,1.84-2.03,2.38-3.09h.69l-1.07,5.83h12.78l4.76-26.85c.14-.77.26-1.54.34-2.32.09-.77.13-1.46.13-2.06,0-3.32-.76-6.11-2.27-8.37-1.52-2.26-3.65-3.97-6.41-5.15-2.76-1.17-6.03-1.76-9.8-1.76-4.26,0-7.8.66-10.62,1.99-2.82,1.33-4.98,3.05-6.5,5.17-1.52,2.12-2.43,4.35-2.75,6.69h12.83c.2-.8.57-1.5,1.12-2.1.54-.6,1.24-1.07,2.08-1.42.84-.34,1.84-.52,2.98-.52,1.37,0,2.51.24,3.41.71.9.47,1.58,1.11,2.04,1.91.46.8.69,1.66.69,2.57,0,.23,0,.47-.02.73-.02.26-.04.47-.06.64l-.56,3.17h-10.42c-3.6,0-6.8.51-9.59,1.54s-4.99,2.57-6.61,4.61c-1.62,2.04-2.48,4.63-2.59,7.74,0,.12,0,.24-.02.37-.01.13-.02.25-.02.37,0,2.74.6,5.09,1.8,7.03,1.2,1.95,2.83,3.43,4.89,4.44,2.06,1.02,4.36,1.52,6.91,1.52Zm.04-14.71c0-1.54.6-2.84,1.8-3.9s2.95-1.59,5.23-1.59h7.25l-.86,4.76c-.32,1.74-1.22,3.17-2.7,4.27-1.49,1.1-3.16,1.65-5.02,1.65-1.12,0-2.1-.22-2.96-.67-.86-.44-1.53-1.05-2.02-1.82s-.73-1.67-.73-2.7Z"/>
            <path class="cls-3" d="m292.62,350.6h13.68l10.89-61.64h-13.73l-10.85,61.64Z"/>
            <path class="cls-3" d="m339.8,351.45c4.06,0,7.6-.69,10.62-2.06,3.02-1.37,5.4-3.17,7.16-5.38,1.76-2.22,2.79-4.63,3.11-7.23h-12.78c-.23.97-.68,1.8-1.35,2.49-.67.69-1.52,1.21-2.53,1.59-1.02.37-2.15.56-3.41.56-1.8,0-3.27-.34-4.42-1.03-1.14-.69-1.98-1.59-2.51-2.72-.53-1.13-.79-2.37-.79-3.71,0-.49.03-1.07.09-1.74.06-.67.14-1.24.26-1.69h28.4c.37-1.72.63-3.1.77-4.16.14-1.06.24-1.9.3-2.53.11-2.95-.25-5.63-1.09-8.04-.84-2.42-2.12-4.51-3.84-6.29-1.72-1.77-3.78-3.14-6.2-4.1-2.42-.96-5.13-1.44-8.13-1.44-3.63,0-7.01.68-10.14,2.04-3.13,1.36-5.78,3.43-7.94,6.22-2.16,2.79-3.62,6.31-4.4,10.57l-.69,3.99c-.17.92-.31,1.89-.43,2.94-.11,1.04-.17,2.11-.17,3.2,0,4.18.89,7.64,2.66,10.38,1.77,2.75,4.18,4.79,7.23,6.13,3.04,1.34,6.46,2.02,10.23,2.02Zm9.87-28.44h-15.1c.09-.29.16-.58.21-.88s.11-.59.17-.88c.4-1.63.99-3,1.76-4.12s1.71-1.94,2.81-2.49c1.1-.54,2.32-.82,3.67-.82,1.63,0,2.97.35,4.01,1.05,1.04.7,1.78,1.65,2.21,2.83.43,1.19.56,2.5.39,3.92,0,.2-.01.42-.04.64-.03.23-.06.47-.09.73Z"/>
          </g>
        </g>
        <g>
          <path class="cls-3" d="m70.58,126.53h.29v-.96h.74c.47,0,.34.42.37.68,0,.1.03.19.06.28h.34v-.07c-.1-.07-.12-.18-.12-.46,0-.37-.03-.43-.26-.57.21-.11.33-.33.3-.56-.03-.51-.37-.57-.72-.57h-1.01v2.25Zm1-1.99c.18,0,.46.04.42.43,0,.02,0,.03,0,.05-.03.2-.22.33-.41.3h-.72v-.77h.72Z"/>
          <path class="cls-3" d="m-60.06,132.96c-2.68-1.61-4.73-3.76-6.15-6.46-1.42-2.7-2.13-5.7-2.13-9,0-1.57.23-3.1.68-4.61.45-1.5,1.09-2.98,1.92-4.42l20.83-37.16,10.14,5.87-20.34,36.47c-.33.54-.57,1.12-.71,1.76-.15.64-.22,1.23-.22,1.76,0,1.73.58,3.25,1.73,4.54,1.15,1.3,2.7,1.95,4.64,1.95h30.73c1.73,0,3.16.56,4.3,1.67,1.13,1.11,1.7,2.51,1.7,4.2s-.57,3.03-1.7,4.14c-1.13,1.11-2.57,1.67-4.3,1.67h-31.47c-3.75,0-6.97-.8-9.64-2.41Zm23.77-32.77c-1.3-.74-2.13-1.9-2.5-3.46l-4.08-17.31-17.06,5.07c-1.52.49-2.94.37-4.23-.37s-2.13-1.85-2.5-3.34c-.45-1.44-.32-2.8.4-4.08.72-1.28,1.86-2.12,3.43-2.53l20.15-5.75c1.15-.33,2.2-.46,3.15-.4.95.06,1.85.36,2.72.9,1.61.95,2.72,2.56,3.34,4.82l5.13,20.4c.41,1.48.25,2.87-.49,4.14-.74,1.28-1.83,2.1-3.28,2.47-1.48.37-2.87.19-4.17-.56ZM2.38,30.39c-.62-1.07-1.42-1.85-2.41-2.35-.99-.49-2.02-.74-3.09-.74s-2.16.25-3.15.74c-.99.5-1.79,1.28-2.41,2.35l-15.76,28.31c-.87,1.48-2.06,2.44-3.59,2.88-1.52.43-3.05.24-4.57-.59-1.44-.82-2.36-1.99-2.75-3.49-.39-1.5-.13-3.06.77-4.67l16.2-28.93c1.69-2.93,3.92-5.14,6.68-6.65,2.76-1.5,5.65-2.26,8.66-2.26s5.83.74,8.59,2.23c2.76,1.48,4.97,3.71,6.61,6.68l21.7,38.82-10.08,5.87L2.38,30.39Zm-3.9,104.42c-1.61-1.61-2.41-3.36-2.41-5.25s.8-3.71,2.41-5.32l15.08-14.59c1.11-1.15,2.4-1.72,3.86-1.7,1.46.02,2.71.57,3.74,1.64,1.11,1.03,1.66,2.3,1.64,3.8-.02,1.5-.61,2.81-1.76,3.93l-12.92,12.24,12.92,12.18c1.15,1.11,1.74,2.41,1.76,3.89.02,1.48-.51,2.76-1.58,3.83-1.03,1.07-2.28,1.62-3.74,1.64-1.46.02-2.75-.51-3.86-1.58l-15.15-14.71Zm3.03-11.13h41.85c1.94,0,3.49-.65,4.67-1.95,1.17-1.3,1.76-2.81,1.76-4.54,0-.54-.08-1.12-.25-1.76-.17-.64-.41-1.23-.74-1.76l-14.96-26.77c-.83-1.44-1.01-2.95-.56-4.51.45-1.57,1.4-2.76,2.84-3.58,1.44-.82,2.93-1.05,4.45-.68,1.52.37,2.7,1.34,3.52,2.91l15.39,27.45c.87,1.48,1.51,2.97,1.95,4.45.43,1.48.65,3.01.65,4.57,0,3.3-.71,6.3-2.13,9-1.42,2.7-3.48,4.85-6.18,6.46s-5.9,2.41-9.61,2.41H1.52v-11.68Zm4.2-57.93c-1.53-.45-2.64-1.31-3.34-2.57-.7-1.26-.87-2.61-.49-4.05.41-1.48,1.27-2.59,2.57-3.31,1.3-.72,2.69-.85,4.17-.4l17.12,5.01,4.08-17.31c.37-1.57,1.2-2.71,2.47-3.43,1.28-.72,2.66-.9,4.14-.53,1.48.33,2.59,1.13,3.31,2.41.72,1.28.88,2.66.46,4.14l-5.07,20.4c-.62,2.23-1.73,3.83-3.34,4.82-.91.54-1.82.83-2.75.9-.93.06-1.97-.07-3.12-.4l-20.22-5.69Z"/>
          <g>
            <path class="cls-3" d="m-25.68,196.47c0,2.23.44,4.12,1.31,5.68.87,1.56,1.99,2.85,3.35,3.86,1.36,1.02,2.82,1.84,4.38,2.46,1.56.63,3.01,1.14,4.35,1.54,1.63.52,3.07.99,4.31,1.44s2.22.98,2.94,1.61c.71.63,1.07,1.46,1.07,2.49,0,.89-.26,1.67-.77,2.36s-1.27,1.23-2.25,1.63-2.2.6-3.62.6-2.7-.21-3.82-.64c-1.12-.43-2.01-1.04-2.68-1.82-.67-.79-1.05-1.71-1.14-2.77,0-.14,0-.31-.02-.49-.01-.19,0-.31.02-.36h-12.14c0,.17-.01.39-.04.66-.03.27-.04.52-.04.75,0,2.35.56,4.38,1.67,6.11s2.6,3.17,4.46,4.31c1.86,1.14,3.95,2,6.28,2.57,2.33.57,4.71.86,7.14.86,2.69,0,5.25-.31,7.7-.92,2.45-.62,4.63-1.54,6.56-2.79s3.45-2.81,4.57-4.7c1.12-1.89,1.67-4.09,1.67-6.61s-.53-4.57-1.59-6.24c-1.06-1.67-2.48-3.06-4.27-4.16-1.79-1.1-3.81-2-6.07-2.68-1.75-.57-3.41-1.08-5-1.52-1.59-.44-2.88-.99-3.88-1.65-1-.66-1.5-1.6-1.5-2.83,0-.8.24-1.54.71-2.21s1.16-1.21,2.06-1.61c.9-.4,2.01-.6,3.32-.6,1.46,0,2.69.24,3.69.73,1,.49,1.77,1.09,2.29,1.82.53.73.79,1.48.79,2.25v.37c0,.16-.01.28-.04.36h11.8c.03-.14.05-.36.06-.66.01-.3.02-.56.02-.79,0-2.52-.79-4.76-2.36-6.73-1.57-1.97-3.78-3.53-6.63-4.65-2.85-1.13-6.14-1.7-9.89-1.7-4.15,0-7.61.64-10.4,1.91-2.79,1.27-4.88,3.01-6.28,5.21-1.4,2.2-2.1,4.72-2.1,7.55Z"/>
            <path class="cls-3" d="m30.12,229.12c2.15,0,4-.32,5.58-.96,1.57-.64,2.88-1.46,3.92-2.47,1.04-1,1.84-2.03,2.38-3.09h.69l-1.07,5.83h12.78l4.76-26.85c.14-.77.26-1.54.34-2.32.09-.77.13-1.46.13-2.06,0-3.32-.76-6.11-2.27-8.37-1.52-2.26-3.65-3.97-6.41-5.15-2.76-1.17-6.03-1.76-9.8-1.76-4.26,0-7.8.66-10.62,1.99-2.82,1.33-4.98,3.05-6.5,5.17-1.52,2.12-2.43,4.35-2.75,6.69h12.83c.2-.8.57-1.5,1.12-2.1.54-.6,1.24-1.07,2.08-1.42.84-.34,1.84-.52,2.98-.52,1.37,0,2.51.24,3.41.71.9.47,1.58,1.11,2.04,1.91.46.8.69,1.66.69,2.57,0,.23,0,.47-.02.73-.02.26-.04.47-.06.64l-.56,3.17h-10.42c-3.6,0-6.8.51-9.59,1.54s-4.99,2.57-6.61,4.61c-1.62,2.04-2.48,4.63-2.59,7.74,0,.12,0,.24-.02.37-.01.13-.02.25-.02.37,0,2.74.6,5.09,1.8,7.03,1.2,1.95,2.83,3.43,4.89,4.44,2.06,1.02,4.36,1.52,6.91,1.52Zm.04-14.71c0-1.54.6-2.84,1.8-3.9s2.95-1.59,5.23-1.59h7.25l-.86,4.76c-.32,1.74-1.22,3.17-2.7,4.27-1.49,1.1-3.16,1.65-5.02,1.65-1.12,0-2.1-.22-2.96-.67-.86-.44-1.53-1.05-2.02-1.82s-.73-1.67-.73-2.7Z"/>
            <path class="cls-3" d="m65.98,228.43h13.68l10.89-61.64h-13.73l-10.85,61.64Z"/>
            <path class="cls-3" d="m113.17,229.29c4.06,0,7.6-.69,10.62-2.06,3.02-1.37,5.4-3.17,7.16-5.38,1.76-2.22,2.79-4.63,3.11-7.23h-12.78c-.23.97-.68,1.8-1.35,2.49-.67.69-1.52,1.21-2.53,1.59-1.02.37-2.15.56-3.41.56-1.8,0-3.27-.34-4.42-1.03-1.14-.69-1.98-1.59-2.51-2.72-.53-1.13-.79-2.37-.79-3.71,0-.49.03-1.07.09-1.74.06-.67.14-1.24.26-1.69h28.4c.37-1.72.63-3.1.77-4.16.14-1.06.24-1.9.3-2.53.11-2.95-.25-5.63-1.09-8.04-.84-2.42-2.12-4.51-3.84-6.29-1.72-1.77-3.78-3.14-6.2-4.1-2.42-.96-5.13-1.44-8.13-1.44-3.63,0-7.01.68-10.14,2.04-3.13,1.36-5.78,3.43-7.94,6.22-2.16,2.79-3.62,6.31-4.4,10.57l-.69,3.99c-.17.92-.31,1.89-.43,2.94-.11,1.04-.17,2.11-.17,3.2,0,4.18.89,7.64,2.66,10.38,1.77,2.75,4.18,4.79,7.23,6.13,3.04,1.34,6.46,2.02,10.23,2.02Zm9.87-28.44h-15.1c.09-.29.16-.58.21-.88s.11-.59.17-.88c.4-1.63.99-3,1.76-4.12s1.71-1.94,2.81-2.49c1.1-.54,2.32-.82,3.67-.82,1.63,0,2.97.35,4.01,1.05,1.04.7,1.78,1.65,2.21,2.83.43,1.19.56,2.5.39,3.92,0,.2-.01.42-.04.64-.03.23-.06.47-.09.73Z"/>
          </g>
        </g>
        <g>
          <path class="cls-3" d="m297.22,4.36h.29v-.96h.74c.47,0,.34.42.37.68,0,.1.03.19.06.28h.34v-.07c-.1-.07-.12-.18-.12-.46,0-.37-.03-.43-.26-.57.21-.11.33-.33.3-.56-.03-.51-.37-.57-.72-.57h-1.01v2.25Zm1-1.99c.18,0,.46.04.42.43,0,.02,0,.03,0,.05-.03.2-.22.33-.41.3h-.72v-.77h.72Z"/>
          <path class="cls-3" d="m166.58,10.79c-2.68-1.61-4.73-3.76-6.15-6.46-1.42-2.7-2.13-5.7-2.13-9,0-1.57.23-3.1.68-4.61.45-1.5,1.09-2.98,1.92-4.42l20.83-37.16,10.14,5.87-20.34,36.47c-.33.54-.57,1.12-.71,1.76-.15.64-.22,1.23-.22,1.76,0,1.73.58,3.25,1.73,4.54,1.15,1.3,2.7,1.95,4.64,1.95h30.73c1.73,0,3.16.56,4.3,1.67,1.13,1.11,1.7,2.51,1.7,4.2s-.57,3.03-1.7,4.14c-1.13,1.11-2.57,1.67-4.3,1.67h-31.47c-3.75,0-6.97-.8-9.64-2.41Zm23.77-32.77c-1.3-.74-2.13-1.9-2.5-3.46l-4.08-17.31-17.06,5.07c-1.52.49-2.94.37-4.23-.37s-2.13-1.85-2.5-3.34c-.45-1.44-.32-2.8.4-4.08.72-1.28,1.86-2.12,3.43-2.53l20.15-5.75c1.15-.33,2.2-.46,3.15-.4.95.06,1.85.36,2.72.9,1.61.95,2.72,2.56,3.34,4.82l5.13,20.4c.41,1.48.25,2.87-.49,4.14-.74,1.28-1.83,2.1-3.28,2.47-1.48.37-2.87.19-4.17-.56Zm38.67-69.8c-.62-1.07-1.42-1.85-2.41-2.35-.99-.49-2.02-.74-3.09-.74s-2.16.25-3.15.74c-.99.5-1.79,1.28-2.41,2.35l-15.76,28.31c-.87,1.48-2.06,2.44-3.59,2.88-1.52.43-3.05.24-4.57-.59-1.44-.82-2.36-1.99-2.75-3.49-.39-1.5-.13-3.06.77-4.67l16.2-28.93c1.69-2.93,3.92-5.14,6.68-6.65,2.76-1.5,5.65-2.26,8.66-2.26s5.83.74,8.59,2.23c2.76,1.48,4.97,3.71,6.61,6.68l21.7,38.82-10.08,5.87-21.39-38.21Zm-3.9,104.42c-1.61-1.61-2.41-3.36-2.41-5.25s.8-3.71,2.41-5.32l15.08-14.59c1.11-1.15,2.4-1.72,3.86-1.7,1.46.02,2.71.57,3.74,1.64,1.11,1.03,1.66,2.3,1.64,3.8-.02,1.5-.61,2.81-1.76,3.93l-12.92,12.24,12.92,12.18c1.15,1.11,1.74,2.41,1.76,3.89.02,1.48-.51,2.76-1.58,3.83-1.03,1.07-2.28,1.62-3.74,1.64-1.46.02-2.75-.51-3.86-1.58l-15.15-14.71Zm3.03-11.13h41.85c1.94,0,3.49-.65,4.67-1.95,1.17-1.3,1.76-2.81,1.76-4.54,0-.54-.08-1.12-.25-1.76-.17-.64-.41-1.23-.74-1.76l-14.96-26.77c-.83-1.44-1.01-2.95-.56-4.51.45-1.57,1.4-2.76,2.84-3.58,1.44-.82,2.93-1.05,4.45-.68,1.52.37,2.7,1.34,3.52,2.91l15.39,27.45c.87,1.48,1.51,2.97,1.95,4.45.43,1.48.65,3.01.65,4.57,0,3.3-.71,6.3-2.13,9-1.42,2.7-3.48,4.85-6.18,6.46s-5.9,2.41-9.61,2.41h-42.66V1.52Zm4.2-57.93c-1.53-.45-2.64-1.31-3.34-2.57-.7-1.26-.87-2.61-.49-4.05.41-1.48,1.27-2.59,2.57-3.31,1.3-.72,2.69-.85,4.17-.4l17.12,5.01,4.08-17.31c.37-1.57,1.2-2.71,2.47-3.43,1.28-.72,2.66-.9,4.14-.53,1.48.33,2.59,1.13,3.31,2.41.72,1.28.88,2.66.46,4.14l-5.07,20.4c-.62,2.23-1.73,3.83-3.34,4.82-.91.54-1.82.83-2.75.9-.93.06-1.97-.07-3.12-.4l-20.22-5.69Z"/>
          <g>
            <path class="cls-3" d="m104.7,106.27l3.56-20.33h6c.4,0,.79,0,1.16-.02s.74-.02,1.12-.02l6.52,20.38h14.76l-7.59-22.18c3.69-1.34,6.7-3.47,9.03-6.37,2.33-2.9,3.71-6.41,4.14-10.53.03-.4.06-.85.09-1.35.03-.5.04-.98.04-1.44,0-5.26-1.69-9.36-5.08-12.29-3.39-2.93-8.08-4.4-14.09-4.4h-23.46l-10.34,58.55h14.15Zm16.21-47.79c1.54,0,2.94.24,4.2.71,1.26.47,2.26,1.21,3,2.23.74,1.01,1.12,2.35,1.12,4.01,0,.31-.01.65-.04,1.01-.03.36-.07.67-.13.92-.2,1.6-.74,3.02-1.63,4.25-.89,1.23-2.1,2.19-3.65,2.89-1.54.7-3.46,1.05-5.75,1.05h-7.98l3.09-17.07h7.76Z"/>
            <path class="cls-3" d="m168.27,107.12c4.06,0,7.6-.69,10.62-2.06,3.02-1.37,5.4-3.17,7.16-5.38,1.76-2.22,2.79-4.63,3.11-7.23h-12.78c-.23.97-.68,1.8-1.35,2.49-.67.69-1.52,1.21-2.53,1.59-1.02.37-2.15.56-3.41.56-1.8,0-3.27-.34-4.42-1.03-1.14-.69-1.98-1.59-2.51-2.72-.53-1.13-.79-2.37-.79-3.71,0-.49.03-1.07.09-1.74.06-.67.14-1.24.26-1.69h28.4c.37-1.72.63-3.1.77-4.16.14-1.06.24-1.9.3-2.53.11-2.95-.25-5.63-1.09-8.04-.84-2.42-2.12-4.51-3.84-6.29-1.72-1.77-3.78-3.14-6.2-4.1-2.42-.96-5.13-1.44-8.13-1.44-3.63,0-7.01.68-10.14,2.04-3.13,1.36-5.78,3.43-7.94,6.22-2.16,2.79-3.62,6.31-4.4,10.57l-.69,3.99c-.17.92-.31,1.89-.43,2.94-.11,1.04-.17,2.11-.17,3.2,0,4.18.89,7.64,2.66,10.38,1.77,2.75,4.18,4.79,7.23,6.13,3.04,1.34,6.46,2.02,10.23,2.02Zm9.87-28.44h-15.1c.09-.29.16-.58.21-.88.06-.3.11-.59.17-.88.4-1.63.99-3,1.76-4.12.77-1.12,1.71-1.94,2.81-2.49s2.32-.82,3.67-.82c1.63,0,2.97.35,4.01,1.05,1.04.7,1.78,1.65,2.21,2.83.43,1.19.56,2.5.39,3.92,0,.2-.01.42-.04.64s-.06.47-.09.73Z"/>
            <path class="cls-3" d="m200.96,74.31c0,2.23.44,4.12,1.31,5.68.87,1.56,1.99,2.85,3.35,3.86,1.36,1.02,2.82,1.84,4.38,2.46,1.56.63,3.01,1.14,4.35,1.54,1.63.52,3.07.99,4.31,1.44s2.22.98,2.94,1.61c.71.63,1.07,1.46,1.07,2.49,0,.89-.26,1.67-.77,2.36s-1.27,1.23-2.25,1.63-2.2.6-3.62.6-2.7-.21-3.82-.64c-1.12-.43-2.01-1.04-2.68-1.82-.67-.79-1.05-1.71-1.14-2.77,0-.14,0-.31-.02-.49-.01-.19,0-.31.02-.36h-12.14c0,.17-.01.39-.04.66-.03.27-.04.52-.04.75,0,2.35.56,4.38,1.67,6.11s2.6,3.17,4.46,4.31c1.86,1.14,3.95,2,6.28,2.57,2.33.57,4.71.86,7.14.86,2.69,0,5.25-.31,7.7-.92,2.45-.62,4.63-1.54,6.56-2.79s3.45-2.81,4.57-4.7c1.12-1.89,1.67-4.09,1.67-6.61s-.53-4.57-1.59-6.24c-1.06-1.67-2.48-3.06-4.27-4.16-1.79-1.1-3.81-2-6.07-2.68-1.75-.57-3.41-1.08-5-1.52-1.59-.44-2.88-.99-3.88-1.65-1-.66-1.5-1.6-1.5-2.83,0-.8.24-1.54.71-2.21s1.16-1.21,2.06-1.61c.9-.4,2.01-.6,3.32-.6,1.46,0,2.69.24,3.69.73,1,.49,1.77,1.09,2.29,1.82.53.73.79,1.48.79,2.25v.37c0,.16-.01.28-.04.36h11.8c.03-.14.05-.36.06-.66.01-.3.02-.56.02-.79,0-2.52-.79-4.76-2.36-6.73-1.57-1.97-3.78-3.53-6.63-4.65-2.85-1.13-6.14-1.7-9.89-1.7-4.15,0-7.61.64-10.4,1.91-2.79,1.27-4.88,3.01-6.28,5.21-1.4,2.2-2.1,4.72-2.1,7.55Z"/>
            <path class="cls-3" d="m256.76,106.95c2.15,0,4-.32,5.58-.96,1.57-.64,2.88-1.46,3.92-2.47,1.04-1,1.84-2.03,2.38-3.09h.69l-1.07,5.83h12.78l4.76-26.85c.14-.77.26-1.54.34-2.32.09-.77.13-1.46.13-2.06,0-3.32-.76-6.11-2.27-8.37-1.52-2.26-3.65-3.97-6.41-5.15-2.76-1.17-6.03-1.76-9.8-1.76-4.26,0-7.8.66-10.62,1.99-2.82,1.33-4.98,3.05-6.5,5.17-1.52,2.12-2.43,4.35-2.75,6.69h12.83c.2-.8.57-1.5,1.12-2.1.54-.6,1.24-1.07,2.08-1.42.84-.34,1.84-.52,2.98-.52,1.37,0,2.51.24,3.41.71.9.47,1.58,1.11,2.04,1.91.46.8.69,1.66.69,2.57,0,.23,0,.47-.02.73-.02.26-.04.47-.06.64l-.56,3.17h-10.42c-3.6,0-6.8.51-9.59,1.54s-4.99,2.57-6.61,4.61c-1.62,2.04-2.48,4.63-2.59,7.74,0,.12,0,.24-.02.37-.01.13-.02.25-.02.37,0,2.74.6,5.09,1.8,7.03,1.2,1.95,2.83,3.43,4.89,4.44,2.06,1.02,4.36,1.52,6.91,1.52Zm.04-14.71c0-1.54.6-2.84,1.8-3.9s2.95-1.59,5.23-1.59h7.25l-.86,4.76c-.32,1.74-1.22,3.17-2.7,4.27-1.49,1.1-3.16,1.65-5.02,1.65-1.12,0-2.1-.22-2.96-.67-.86-.44-1.53-1.05-2.02-1.82s-.73-1.67-.73-2.7Z"/>
            <path class="cls-3" d="m292.62,106.27h13.68l10.89-61.64h-13.73l-10.85,61.64Z"/>
            <path class="cls-3" d="m339.8,107.12c4.06,0,7.6-.69,10.62-2.06,3.02-1.37,5.4-3.17,7.16-5.38,1.76-2.22,2.79-4.63,3.11-7.23h-12.78c-.23.97-.68,1.8-1.35,2.49-.67.69-1.52,1.21-2.53,1.59-1.02.37-2.15.56-3.41.56-1.8,0-3.27-.34-4.42-1.03-1.14-.69-1.98-1.59-2.51-2.72-.53-1.13-.79-2.37-.79-3.71,0-.49.03-1.07.09-1.74.06-.67.14-1.24.26-1.69h28.4c.37-1.72.63-3.1.77-4.16.14-1.06.24-1.9.3-2.53.11-2.95-.25-5.63-1.09-8.04-.84-2.42-2.12-4.51-3.84-6.29-1.72-1.77-3.78-3.14-6.2-4.1-2.42-.96-5.13-1.44-8.13-1.44-3.63,0-7.01.68-10.14,2.04-3.13,1.36-5.78,3.43-7.94,6.22-2.16,2.79-3.62,6.31-4.4,10.57l-.69,3.99c-.17.92-.31,1.89-.43,2.94-.11,1.04-.17,2.11-.17,3.2,0,4.18.89,7.64,2.66,10.38,1.77,2.75,4.18,4.79,7.23,6.13,3.04,1.34,6.46,2.02,10.23,2.02Zm9.87-28.44h-15.1c.09-.29.16-.58.21-.88s.11-.59.17-.88c.4-1.63.99-3,1.76-4.12s1.71-1.94,2.81-2.49c1.1-.54,2.32-.82,3.67-.82,1.63,0,2.97.35,4.01,1.05,1.04.7,1.78,1.65,2.21,2.83.43,1.19.56,2.5.39,3.92,0,.2-.01.42-.04.64-.03.23-.06.47-.09.73Z"/>
          </g>
        </g>
      </g>
    </pattern>
    <pattern id="_新規パターンスウォッチ_1-2" data-name="新規パターンスウォッチ 1" patternTransform="translate(260.4 -527.1) scale(.83 1)" xlink:href="#_新規パターンスウォッチ_1"/>
  </defs>
  <rect class="cls-6" x="-173.82" y="-264.38" width="2231.83" height="1694.44"/>
  <use width="272.18" height="214.33" transform="translate(714.3 322.64)" xlink:href="#_新規シンボル"/>
  <path class="cls-2" d="m791.56,579.63h-37.45c-2.57,0-4.66,2.08-4.66,4.65,0,0,0,0,0,.01v19.43c0,2.56,2.08,4.63,4.64,4.63,0,0,.01,0,.02,0h37.44c1.19-.02,2.14-.99,2.14-2.17v-2.74c0-1.18-.96-2.14-2.14-2.14h-21.52c-1.03,0-1.86-.83-1.86-1.86,0,0,0,0,0,0v-.68c0-1.03.83-1.86,1.86-1.86h19.48c1.18.02,2.15-.92,2.17-2.1,0-.01,0-.02,0-.03v-1.54c0-1.18-.95-2.13-2.13-2.13-.01,0-.03,0-.04,0h-19.51c-1.03,0-1.86-.83-1.86-1.86,0,0,0,0,0,0v-.71c0-1.03.83-1.86,1.85-1.86,0,0,0,0,.01,0h21.55c1.18,0,2.13-.96,2.13-2.14v-2.74c0-1.18-.95-2.13-2.13-2.14Z"/>
  <path class="cls-2" d="m806.28,586.64c1.03,0,1.86.83,1.86,1.85,0,0,0,0,0,0v15.22c0,2.57,2.09,4.66,4.66,4.66h9.51c2.57,0,4.66-2.08,4.66-4.66v-15.22c0-1.02.82-1.86,1.85-1.86,0,0,.01,0,.02,0h12.88c1.17.02,2.14-.92,2.15-2.1,0,0,0-.02,0-.03v-2.75c0-1.18-.96-2.14-2.14-2.14,0,0,0,0,0,0h-42.23c-1.18,0-2.13.96-2.13,2.14v2.75c0,1.17.95,2.13,2.13,2.13,0,0,0,0,0,0h6.79Z"/>
  <path class="cls-2" d="m933.45,601.14h-23.19c-1.18,0-2.13-.95-2.13-2.13h0v-9.79c0-1.17.95-2.13,2.12-2.13,0,0,0,0,.01,0h16.14c1.17,0,2.12.95,2.12,2.12,0,0,0,0,0,.01v1.96c-.03,1.17.9,2.15,2.08,2.17.02,0,.03,0,.05,0h2.76c1.18,0,2.13-.96,2.13-2.14,0-.01,0-.02,0-.03v-8.45c.04-1.68-1.3-3.07-2.98-3.11-.06,0-.11,0-.17,0h-40.26c-2.57,0-4.66,2.09-4.66,4.66v19.43c0,2.57,2.09,4.66,4.66,4.66h41.31c1.18,0,2.13-.95,2.14-2.13h0v-2.97c0-1.18-.95-2.13-2.13-2.14Z"/>
  <path class="cls-2" d="m869.62,581.34c-.66-1.01-1.77-1.65-2.97-1.71h-11.64c-.63.03-1.21.37-1.54.91l-14.44,24.36c-.19.36-.3.76-.29,1.16,0,1.22.95,2.24,2.17,2.31h11.89c.62,0,1.18-.34,1.49-.87l3.63-6.1c.14-.22.37-.36.63-.38h16.33c.28,0,.54.14.69.37l3.7,6.33c.24.38.64.62,1.09.65h2.76c.7-.02,1.26-.6,1.27-1.3,0-.25-.07-.49-.21-.7l-14.56-25.04Zm-.45,13.45h-4.74c-.81,0-1.47-.66-1.47-1.47h0c0-.3.09-.58.26-.83l2.6-4.35c.33-.56,1.05-.75,1.61-.42.17.1.32.25.42.42l2.54,4.35c.46.67.3,1.58-.37,2.04-.25.17-.55.26-.85.26h0Z"/>
  <path class="cls-2" d="m940.34,602.96h1.6c.54,0,1.09.1,1.14.91.05.37-.14.73-.47.9.37.23.41.33.42.91,0,.46.03.63.19.74v.12h-.54c-.06-.14-.09-.3-.1-.45-.04-.42.16-1.09-.59-1.09h-1.17v1.54h-.46v-3.58Zm.46.41v1.23h1.15c.31.05.6-.16.66-.47,0-.02,0-.05,0-.07.06-.61-.38-.68-.67-.68h-1.15Z"/>
  <path class="cls-2" d="m941.7,608.17c1.88,0,3.4-1.52,3.4-3.4,0-1.88-1.52-3.4-3.4-3.4-1.88,0-3.4,1.52-3.4,3.4,0,1.88,1.52,3.4,3.4,3.4Zm-2.97-3.4c0-1.65,1.34-2.99,2.99-2.99s2.99,1.34,2.99,2.99-1.34,2.99-2.99,2.99-2.99-1.34-2.99-2.99Z"/>
  <g>
    <g>
      <path class="cls-2" d="m1104.65,312c.28.12.79.32.79.63,0,.24-.4.28-.6.32-.48.08-.48.12-.75.79-.87,2.42-2.14,4.72-3.61,6.83l-4.01-2.46c2.14-2.3,3.49-4.76,4.68-7.66l3.49,1.55Zm11.83-25.44c.32.04.6.12.6.44,0,.24-.28.4-.48.48-.2.08-.6.28-.6.52v1.83h12.22v3.85h-12.22v2.74h10.83v13.1h-25.48v-13.1h9.84v-10.24l5.28.4Zm5.71,13.69h-16.15v5.24h16.15v-5.24Zm-11.07,10.87c.99,2.7,1.43,4.84,1.55,7.66l-4.33.71c-.04-2.58-.36-4.96-1.07-7.46l3.85-.91Zm8.22-.12c.99,2.58,1.51,4.76,1.75,7.54l-4.41.63c-.2-2.62-.48-4.8-1.31-7.34l3.97-.83Zm7.26-.32c1.83,2.18,3.49,4.56,4.76,7.1l-3.85,2.58c-1.15-2.7-2.66-5.04-4.41-7.38l3.49-2.3Z"/>
      <path class="cls-2" d="m1101.71,345.13c-.67,1.55-1.55,3.02-2.5,4.41l-3.53-2.02c3.1-4.13,4.96-8.45,5.56-13.57h-4.17v-3.77h4.64v-5.91l3.41.28c.56.04,1.23.12,1.23.4,0,.16-.12.28-.36.48-.24.2-.36.36-.36.52v4.25h4.17v3.77h-4.17v2.02c0,.79,1.27,2.74,1.79,3.45.79,1.11,1.71,2.14,2.74,3.06l-2.74,3.02c-.64-.64-1.23-1.39-1.79-2.1v14.76h-3.93v-13.02Zm24.29-8.85h-3.37v2.34h7.78v10.72h-6.71c1.71,2.78,5.12,4.68,8.06,5.91l-2.7,3.29c-3.25-1.55-6.47-4.01-8.33-7.14-2.26,3.89-5.32,5.75-9.41,7.3l-2.42-3.41c3.57-1.11,6.83-2.62,8.81-5.95h-6.19v-10.72h7.42c0-.79-.04-1.55-.08-2.34h-3.18v-2.06c-1.11,1.07-2.26,2.14-3.53,3.02l-3.02-2.46c4.29-2.78,7.46-6.15,9.52-10.88l3.41.63c.56.12.99.28.99.6,0,.08-.12.2-.28.36-.08.08-.2.2-.2.36,0,.52,1.31,1.98,3.21,3.49,2.18,1.71,4.92,3.33,6.63,4.09l-2.5,3.21c-1.43-.79-2.62-1.55-3.93-2.5v2.14Zm-10.72,5.48v4.25h3.53c.08-.52.16-1.39.16-1.98v-2.26h-3.69Zm9.45-8.57c-1.55-1.23-3.06-2.62-4.25-4.25-1.15,1.47-2.46,2.9-3.77,4.25h8.02Zm-2.1,8.57c-.04,1.43-.08,2.82-.2,4.25h4.21v-4.25h-4.01Z"/>
      <path class="cls-2" d="m1118.62,368.35c0,2.46-1.98,4.45-4.44,4.45s-4.45-1.98-4.45-4.45,1.98-4.44,4.45-4.44,4.44,1.98,4.44,4.44Z"/>
      <path class="cls-2" d="m1107.78,399.3c-.75-.79-1.47-1.59-2.14-2.46v15.76h-4.13v-11.55c-.67,1.51-1.63,3.06-2.58,4.41l-3.45-1.98c3.1-3.65,5.12-9.29,5.75-14.05h-4.21v-3.85h4.48v-7.1l3.89.28c.44.04.91.16.91.4s-.2.4-.36.52c-.16.12-.32.28-.32.4v5.52h4.37v3.85h-4.37c.67,2.46,2.94,5.32,4.88,6.87l-2.74,3.02Zm21.67,13.02c-3.97-1.83-6.31-3.53-9.21-6.79-3.14,3.1-5.83,4.84-9.76,6.79l-3.06-3.1c3.85-1.67,7.66-3.69,10.48-6.87-1.43-2.18-2.5-4.29-3.57-6.67-.24.4-.52.79-.79,1.15l-3.73-1.55c2.02-2.74,3.57-5.6,4.68-8.81l3.25,1.31c.4.16.79.36.79.64,0,.16-.2.28-.32.32-.52.16-.56.2-.83.91-.08.2-.36.87-.44,1.07-.36.91-1.31,2.74-1.83,3.61l2.46-1.35c.79,2.26,1.55,4.01,2.78,6.11,1.43-2.42,2.1-4.17,2.74-6.87l2.62.56c-1.31-1.71-2.46-3.02-4.09-4.45l3.29-2.22c2.26,2.18,5.28,5.48,6.95,8.14l-3.85,2.22c-.4-.83-.87-1.63-1.35-2.38-.95,3.29-1.94,5.44-3.85,8.33,3.02,3.25,5.56,4.84,9.72,6.35l-3.1,3.53Zm-7.06-33.89c.36,0,.91.04.91.48,0,.16-.16.32-.4.48-.36.24-.44.36-.44.48v2.18h8.85v3.89h-20.6v-3.89h7.66v-3.77l4.01.16Z"/>
      <path class="cls-2" d="m1106.83,427.56c.36.04.79.16.79.52,0,.2-.08.32-.36.56-.24.2-.4.48-.4.75v15.84h5v-23.62h-13.53v-4.13h31.71v4.13h-13.41v9.05h11.35v4.56h-11.35v10h14.13v4.13h-33.38v-4.13h4.88v-17.98l4.56.32Z"/>
      <path class="cls-2" d="m1120.13,481.45h-4.6c.08-1.98.16-3.97.2-5.95-2.06,1.03-5.6,2.98-5.6,5.6,0,2.9,3.81,3.1,5.91,3.1,3.41,0,6.79-.52,10.12-1.27v4.48c-3.14.48-6.31.6-9.45.6s-7.06-.2-9.33-2.66c-1.03-1.11-1.51-2.38-1.51-3.89,0-2.78,1.23-4.72,3.41-6.31,1.51-1.11,4.41-2.62,6.19-3.53-.4-1.75-1.11-2.62-3.02-2.62-3.93,0-6.31,3.73-8.45,7.18l-3.89-2.42c3.33-3.57,5.4-6.71,7.82-10.92-1.71.08-3.45.16-5.16.16l-.48-4.13c1.63.12,3.29.2,4.96.2.87,0,1.67,0,2.66-.04.79-1.79,1.47-3.41,1.94-5.28l4.96.87c.48.08.79.16.79.44,0,.24-.16.32-.67.52-.52.2-.67.28-.83.67-.12.32-.67,1.59-1.03,2.3,2.9-.48,5-.91,7.78-2.02l-.28,4.44c-3.14.71-6.31,1.15-9.49,1.47-.71,1.35-1.47,2.7-2.26,3.97,1.11-.56,2.18-.83,3.41-.83,2.74,0,4.52,1.47,5.4,4.01,2.34-1.11,4.68-2.22,7.02-3.25l1.35,4.52c-2.7.87-5.36,1.79-7.98,2.78,0,2.06.04,5.24.08,7.82Z"/>
      <path class="cls-2" d="m1103.77,509.31h19.57l1.98,2.1c-1.98,3.37-3.97,5.64-7.02,8.1,4.25,1.83,7.06,2.42,11.63,2.86l-1.79,3.77c-5.2-.52-9.01-1.71-13.69-4.13-4.37,2.3-9.53,4.09-14.45,4.33l-2.14-3.85c4.68-.16,8.45-1.03,12.78-2.94-1.83-1.43-3.18-2.74-4.56-4.56l2.14-1.94h-4.44v-3.73Zm21.87-10.99c.48.16.79.44.79.64s-.16.28-.48.32c-.36.04-.56.16-.75.44-.91,1.27-1.75,2.34-2.78,3.53h8.14v8.1h-4.05v-4.44h-24.57v4.52h-4.05v-8.18h5.87c-.64-1.15-1.55-2.26-2.54-3.14l3.1-2.06c-.75,0-1.51,0-2.3-.04l-1.79-3.85c1.75.12,3.45.2,5.2.2,5.16,0,13.97-.91,18.85-2.42l2.98,3.02c.24.24.64.71.64,1.03,0,.16-.12.24-.28.24-.08,0-.32-.04-.52-.08-.2-.04-.4-.08-.48-.08-.12,0-.67.08-.87.12-3.37.71-8.14,1.19-12.58,1.51,1.19,1.35,2.18,2.74,2.98,4.33l-1.43,1.23h3.77c1.39-1.98,2.34-4.01,3.14-6.31l4.01,1.39Zm-13.49,4.92c-.6-1.47-1.47-2.58-2.54-3.73l2.5-1.75c-2.46.16-4.92.28-7.38.28,1.31,1.43,2.1,2.54,3.14,4.21l-1.15.99h5.44Zm-2.38,9.8c1.43,1.87,2.66,2.98,4.6,4.33,1.83-1.31,3.1-2.5,4.45-4.33h-9.05Z"/>
      <path class="cls-2" d="m1105.8,531.1c.56.16.87.28.87.6,0,.2-.08.36-.44.52-.4.16-.56.36-.71.99-1.03,4.21-1.39,8.77-1.39,11.95,0,2.5.16,5.04.79,7.5.52-1.27,1.03-2.54,1.59-3.81l2.98,2.06c-1.31,2.98-2.1,6.15-2.58,9.37l-3.81.6c-.95-2.18-1.51-3.53-2.02-5.83-.83-3.65-1.15-7.38-1.15-11.07,0-5.04.71-9.17,1.59-14.09l4.29,1.23Zm5.91,12.58l-.91-4.56c.83.04,1.71.08,2.54.08,2.22,0,4.21-.16,6.39-.44-.24-2.98-.6-5.64-1.15-8.57l4.64.16c.44,0,1.03.04,1.03.48,0,.16-.08.32-.4.63-.16.16-.32.44-.32.67,0,.04.04.56.16,1.91.12,1.31.24,2.78.32,3.81,2.02-.56,3.49-1.07,5.4-1.9l.16,4.56c-1.83.71-3.37,1.19-5.24,1.71.04.79.04,1.59.04,2.38,0,3.49-.44,7.26-1.47,10.6-.95,3.02-2.14,5-3.85,7.62l-4.48-2.3c3.41-4.09,5.4-8.85,5.4-15.64,0-.6,0-1.19-.04-1.79-2.54.4-5.24.56-8.22.6Z"/>
      <path class="cls-2" d="m1119.49,569.99v4.41c-2.5.87-4.8,1.39-7.38,1.91-2.26,7.7-4.48,13.93-8.18,21.11l-4.84-1.47c3.97-6.39,5.95-11.71,8.06-18.89-1.98.24-3.93.44-5.91.48l-.32-4.13c1.07.2,2.14.24,3.21.24.91,0,3.14-.08,3.93-.24.6-2.7,1.27-5.64,1.35-8.41l4.88,1.15c.48.12.99.28.99.67,0,.32-.16.44-.71.63-.24.08-.36.16-.44.6-.12.63-.36,1.79-.95,4.29,2.18-.48,4.33-1.39,6.31-2.34Zm-3.14,19.65c-.12.48-.16.99-.16,1.47,0,2.22,4.01,2.26,5.56,2.26,2.42,0,4.6-.24,6.95-.87l.4,4.6c-2.3.4-4.6.6-6.95.6-2.82,0-6.43-.28-8.69-2.14-1.11-.95-1.51-2.5-1.51-3.89,0-.95.16-1.95.48-2.86l3.93.83Zm6.99-11.71c1.75,0,3.37.08,5.12.24v4.21c-1.75-.24-3.65-.44-5.44-.44-1.98,0-3.97.2-5.95.44v-4.17c2.1-.16,4.17-.28,6.27-.28Z"/>
      <path class="cls-2" d="m1056.71,305.84v-3.33c-1.71,1.87-3.14,3.06-5.2,4.45l-2.78-2.3c2.1-1.19,3.65-2.3,5.2-4.17h-3.29v-7.86h6.07v-1.27h-7.14v-3.25h7.14v-2.02l3.02.12c.32,0,1.23.04,1.23.52,0,.2-.04.36-.2.52-.2.2-.36.4-.36.64v.24h6.91v3.25h-6.91v1.27h6.07v3.29c2.42-2.9,3.73-5.99,4.76-9.56l3.33.75c.36.08,1.07.24,1.07.75,0,.36-.32.44-.63.52-.32.08-.48.16-.56.4-.12.36-.24.67-.4,1.03h9.41v3.77h-2.34c-1.07,2.58-2.02,4.41-3.73,6.67,2.38,1.75,4.25,2.54,7.06,3.37l-2.94,3.21c-2.62-1.19-4.41-2.1-6.71-3.89-2.26,1.63-4.09,2.38-6.75,3.18l-1.79-3.49c2.3-.44,3.97-.95,5.91-2.34-.79-.99-1.35-1.83-1.94-2.94-.28.4-.52.75-.79,1.15l-2.98-1.94v3.93h-3.85c1.11,1.15,2.06,1.55,3.49,2.18l-1.71,2.86c-1.67-.95-2.54-1.63-4.01-2.86v3.18h-3.69Zm23.61.52v3.37h-11.23v1.31h8.81v3.21h-8.81v1.63h14.57v3.49h-34.09v-3.49h6.47v-4.84l4.01.2c1.07.04,1.51.2,1.51.56,0,.32-.24.48-.6.71-.28.2-.48.36-.48.67v2.7h3.73v-6.15h-11.55v-3.37h27.66Zm-23.61-10.83h-2.7v2.1h2.7v-2.1Zm6.39,0h-2.7v2.1h2.7v-2.1Zm9.49-1.94c.56,1.59,1.11,2.62,2.14,3.97.95-1.23,1.83-2.46,2.26-3.97h-4.41Z"/>
      <path class="cls-2" d="m1059.68,325.53c.48.16.83.44.83.71,0,.36-.36.48-.64.52-.63.12-.75.36-1.11,1.31-.48,1.27-1.23,2.7-1.9,3.93.36.2.91.48.91.91,0,.36-.28.56-.52.75-.16.16-.48.44-.48.67v21.11c3.25-5.72,3.25-11.99,3.41-18.38h-1.59v-3.57h7.22v-2.54h-5v-3.57h5v-2.9l4.05.2c.24,0,.83,0,.83.36,0,.24-.16.44-.32.6-.16.2-.32.4-.32.67v1.07h2.82v-3.02l4.05.12c.28,0,.87.04.87.44,0,.24-.12.4-.28.6-.16.16-.4.44-.4.64v1.23h5.52v3.57h-5.52v2.54h6.47v3.57h-19.49c-.04,6.99-.2,14.41-3.65,20.68l-3.69-1.75v1.79h-4.37v-19.21c-.32.48-.56.87-.95,1.31l-3.37-2.42c3.29-4.01,5.95-8.41,7.5-13.41l4.09,1.47Zm9.45,27.03v5.32h-3.65v-18.65h16.35v16.07c0,2.38-2.14,2.62-4.52,2.74l-1.19-3.17c.2.04.44.04.64.04.63,0,1.39-.08,1.39-.87v-1.47h-2.86v5.2h-3.53v-5.2h-2.62Zm2.62-10.32h-2.62v2.3h2.62v-2.3Zm-2.62,5.08v2.46h2.62v-2.46h-2.62Zm.95-13.81h2.82v-2.54h-2.82v2.54Zm8.06,11.03v-2.3h-2.86v2.3h2.86Zm-2.86,5.24h2.86v-2.46h-2.86v2.46Z"/>
      <path class="cls-2" d="m1052.82,380.02c-1.59-1.71-3.17-2.9-5.12-4.13l2.42-3.37c2.02,1.07,3.77,2.26,5.4,3.89l-2.7,3.61Zm1.47,2.46l3.85,2.26c-1.15,3.57-2.46,7.06-4.13,10.44-.12.24-.2.48-.2.67s.08.44.08.63-.12.44-.44.44c-.24,0-.64-.16-.87-.28l-3.37-1.67c2.26-3.73,3.85-8.33,5.08-12.5Zm.12-13.26c-1.39-1.59-2.74-2.94-4.52-4.13l2.78-2.98c1.91,1.23,3.29,2.38,4.8,4.01l-3.06,3.1Zm25.16,27.27h-4.41v-6.43h-9.84c-.83,2.78-2.02,4.68-4.09,6.71l-3.81-2.3c4.76-4.29,4.48-8.1,4.48-14.05-.91.24-1.55.36-2.46.48l-2.02-4.01c3.33-.28,5.95-.91,9.09-2.14-1.87-1.47-3.06-2.9-4.37-4.84h-3.49v-3.61h9.29v-4.17l4.25.28c.44.04.99.08.99.4,0,.2-.24.4-.36.52-.16.16-.32.28-.32.48v2.5h11.19v3.61h-4.96c-1.51,1.98-3.06,3.45-5.04,4.96,3.18,1.23,6.55,1.75,9.92,1.91l-1.59,3.97c-.83-.08-1.63-.2-2.46-.36v16.11Zm-4.41-9.92v-1.94h-9.01c-.04.63-.08,1.31-.16,1.94h9.17Zm0-7.26c-1.91-.63-3.29-1.19-5-2.14-1.31.75-2.42,1.27-3.81,1.83v2.14h8.81v-1.83Zm-8.06-9.41c.95,1.23,1.79,1.98,3.02,2.98,1.35-.87,2.34-1.67,3.29-2.98h-6.31Z"/>
      <path class="cls-2" d="m1060.6,401.41c.6.04,1.03.12,1.03.44,0,.24-.16.4-.64.71-.24.16-.4.32-.4.44v16.75h-4.72v-18.73l4.72.4Zm16.55-.4c.67.04.99.16.99.48,0,.24-.12.4-.6.79-.32.28-.36.4-.36,1.75,0,2.7,0,5.28-.04,7.94-.04,3.17-.28,6.15-1.27,9.17-2.02,6.15-6.11,9.21-11.63,12.07l-3.45-3.85c3.89-1.55,7.26-3.29,9.37-7.14,1.91-3.53,2.18-7.9,2.18-11.83,0-3.21-.08-6.43-.28-9.64l5.08.28Z"/>
      <path class="cls-2" d="m1082.11,446.65c-1.39,1.19-1.63,1.63-2.18,2.54-1.43,2.34-4.33,6.39-6.07,8.57l-3.65-2.1c1.83-2.26,3.57-4.56,5.08-7.06l-10.88,1.35v9.29c0,2.58.67,2.9,5,2.9,3.57,0,6.23-.36,9.68-.95l-.04,4.8c-2.98.32-6.03.44-9.05.44-8.49,0-10-.95-10-5.56v-10.4l-8.14.95-.36-4.21,8.49-1.03v-10.28l3.89.48c.99.12,1.43.2,1.43.56,0,.2-.08.36-.52.63-.36.24-.4.48-.4.59v7.54l12.58-1.51c.71-.08,1.23-.48,1.75-.95l3.37,3.41Z"/>
      <path class="cls-2" d="m1068.81,472c.44.04,1.31.12,1.31.67,0,.24-.24.48-.44.6-.12.08-.48.36-.48.52v26.79h-5.36v-29.05l4.96.48Z"/>
      <path class="cls-2" d="m1053.29,532.09l-4.41-3.21c3.1-1.79,5.4-3.73,6.91-7.06,1.23-2.66,1.59-5.6,1.59-8.49,0-2.46-.16-4.96-.44-7.42l4.8.32c.56.04,1.15.08,1.15.48,0,.28-.16.4-.44.59-.32.24-.4.4-.4.64v4.13c0,3.73,0,6.23-1.07,9.8-1.35,4.49-4.05,7.38-7.7,10.24Zm17.62-26.12c.63.08,1.11.16,1.11.52,0,.24-.16.4-.48.64s-.44.44-.44.52v17.26c3.73-2.02,8.18-6.63,10.48-10.16l2.7,4.01c-3.57,4.76-9.41,10.48-14.6,13.38l-3.37-2.62v-24.09l4.6.56Z"/>
      <path class="cls-2" d="m1069.53,553.56c.32.04.79.16.79.44,0,.12-.12.24-.32.32-.4.16-.4.2-.4.32v.95h13.77v3.41h-5.08l1.83,1.75c.12.12.2.2.2.36,0,.24-.16.28-.63.32-.4.04-.52.12-.99.56-.36.36-.99.95-2.18,1.95,2.38,1.19,4.29,1.9,6.91,2.5l-3.02,3.25c-5.95-1.98-10.32-5-14.25-9.84-.91.63-1.83,1.15-2.82,1.67v3.61c2.14-.4,4.33-.75,6.47-1.19l-.52,3.49c-3.17.71-7.54,1.67-10.64,2.18-.64.12-1.71.28-2.46.44-.32.08-.36.16-.56.4-.16.2-.28.32-.4.32-.16,0-.24-.2-.28-.44l-.67-3.93c1.67-.12,3.25-.32,4.88-.63v-2.34c-2.66,1.07-5.4,2.02-8.18,2.74l-2.1-3.53c3.89-.67,7.34-1.67,10.83-3.61h-10.12v-3.41h15.6v-1.27c-.6.08-1.11.08-1.71.08l-.99-2.98c.36.04.67.04,1.03.04.4,0,.87-.08.87-.59v-1.39h-2.58v5.16h-3.93v-5.16h-2.42v4.45h-3.97v-7.1h6.39v-1.39h-8.18v-3.02h.79l-1.98-1.23c1.71-1.67,2.58-3.02,3.45-5.24l3.77,1.11c.24.08.36.2.36.36,0,.12-.12.28-.4.36-.16.04-.32.08-.48.32h2.66v-2.1l4.09.2c.2,0,.4.12.4.28s-.12.28-.28.44c-.24.24-.28.4-.28.6v.59h6.79v2.82h-6.79v1.51h7.38v3.02h-7.38v1.39h6.43v5.28c0,.56-.16.91-.6,1.31l1.87.16Zm-11.63-11.15v-1.51h-4.48c-.32.52-.75,1.11-1.15,1.51h5.64Zm12.38,16.59c.91,1.23,1.83,2.06,3.02,2.94,1.07-.83,1.79-1.75,2.5-2.94h-5.52Zm4.6-20.6c.32.04.44.2.44.4,0,.16-.08.28-.28.48-.2.2-.36.32-.36.48v10.04h-4.17v-11.75l4.37.36Zm7.14-2.06c.28.04.4.16.4.32s-.04.24-.28.44c-.28.24-.36.4-.36.6v13.89c0,3.06-2.9,3.1-5.4,3.14l-1.27-3.61c.48.04.95.12,1.43.12.99,0,1.31-.4,1.31-1.35v-13.93l4.17.4Z"/>
      <path class="cls-2" d="m1050.28,591.34h14.53v16.07h-4.21v-1.03h-6.11v1.03h-4.21v-16.07Zm4.21,4.09v6.83h6.11v-6.83h-6.11Zm2.38-6.51v-13.81h19.09v13.81h-19.09Zm4.44-4.05h10.04v-5.71h-10.04v5.71Zm5.91,6.47h15.36v16.07h-4.37v-1.15h-6.71v1.15h-4.29v-16.07Zm4.29,4.09v6.83h6.71v-6.83h-6.71Z"/>
    </g>
    <g>
      <path class="cls-2" d="m625.11,286.75c.6.04,1.03.12,1.03.44,0,.24-.16.4-.64.71-.24.16-.4.32-.4.44v16.75h-4.72v-18.73l4.72.4Zm16.55-.4c.67.04.99.16.99.48,0,.24-.12.4-.6.79-.32.28-.36.4-.36,1.75,0,2.7,0,5.28-.04,7.94-.04,3.17-.28,6.15-1.27,9.17-2.02,6.15-6.11,9.21-11.63,12.07l-3.45-3.85c3.89-1.55,7.26-3.29,9.37-7.14,1.91-3.53,2.18-7.9,2.18-11.83,0-3.21-.08-6.43-.28-9.64l5.08.28Z"/>
      <path class="cls-2" d="m633.32,322.63c.44.04,1.31.12,1.31.67,0,.24-.24.48-.44.6-.12.08-.48.36-.48.52v26.79h-5.36v-29.05l4.96.48Z"/>
      <path class="cls-2" d="m642.17,360.77c-1.27.83-1.75,1.39-2.26,2.7-1.03,2.62-3.14,6.59-4.48,8.61,3.89,2.86,7.3,6.23,10.56,9.8l-3.61,3.85c-3.02-3.93-5.79-6.75-9.6-9.92-4.37,4.92-7.78,7.34-13.65,10.24l-3.53-3.65c9.37-3.89,15.52-10,19.41-19.37h-15.08v-4.6h17.11c.71,0,1.39-.63,1.87-1.11l3.29,3.45Zm3.45.75c-.91-1.43-1.79-2.5-2.94-3.69l1.94-1.55c1.11,1.15,2.06,2.34,2.94,3.69l-1.94,1.55Zm2.54-4.64c-.95-1.27-1.79-2.26-3.02-3.33l1.91-1.59c1.19.99,2.14,1.98,3.02,3.33l-1.9,1.59Z"/>
      <path class="cls-2" d="m646.86,397.95v4.6h-12.3c-1.11,10.2-3.85,14.68-12.7,19.88l-4.05-3.93c7.82-3.77,10.72-7.22,11.87-15.96h-14.41v-4.6h14.72c.04-.75.04-1.47.04-2.22,0-2.22-.08-4.45-.4-6.63l5.32.63c.71.08,1.19.2,1.19.52,0,.2-.12.4-.48.64-.67.44-.71.63-.71,1.27v1.27c0,1.51-.04,3.02-.08,4.52h11.99Z"/>
      <path class="cls-2" d="m639.99,429.7c.4,0,.75-.24,1.31-.63l3.89,3.65c-1.43,1.31-1.63,2.06-2.06,3.37-1.51,4.48-4.21,9.49-6.71,12.58-3.41,4.21-6.91,6.87-11.63,9.41l-4.17-3.41c5.28-2.5,9.29-5.44,12.82-10.12,2.42-3.21,3.93-6.43,5.24-10.24h-21.15v-4.6h22.46Zm2.94-3.21l-1.94,1.75c-.99-1.27-2.02-2.5-3.29-3.49l1.94-1.75c1.23.99,2.34,2.26,3.29,3.49Zm5.95-.16l-2.1,1.71c-.91-1.35-1.94-2.54-3.21-3.57l1.94-1.75c1.27.99,2.42,2.3,3.37,3.61Z"/>
      <path class="cls-2" d="m617.81,488.48l-4.41-3.21c3.1-1.79,5.4-3.73,6.91-7.06,1.23-2.66,1.59-5.6,1.59-8.49,0-2.46-.16-4.96-.44-7.42l4.8.32c.56.04,1.15.08,1.15.48,0,.28-.16.4-.44.59-.32.24-.4.4-.4.64v4.13c0,3.73,0,6.23-1.07,9.8-1.35,4.49-4.05,7.38-7.7,10.24Zm17.62-26.12c.63.08,1.11.16,1.11.52,0,.24-.16.4-.48.64s-.44.44-.44.52v17.26c3.73-2.02,8.18-6.63,10.48-10.16l2.7,4.01c-3.57,4.76-9.41,10.48-14.6,13.38l-3.37-2.62v-24.09l4.6.56Z"/>
      <path class="cls-2" d="m622.89,493.91c.75.28,1.03.44,1.03.71,0,.24-.16.36-.67.56-.12.04-.24.08-.32.2-.2.28-.83,2.38-.91,2.82-.75,3.37-1.27,7.1-1.27,10.6,0,1.59.08,3.93.56,5.44.52-.95,1.11-1.98,1.59-2.78l2.34,1.27c-1.23,2.86-1.94,5.87-2.42,8.93l-3.14,1.23c-1.19-1.91-1.63-3.33-2.14-5.52-.64-2.62-.95-5.36-.95-8.06,0-5.36,1.07-11.67,2.26-16.87l4.05,1.47Zm14.05,22.19c3.14,0,6.03-.4,9.05-1.23v4.92c-3.14.48-5.75.71-8.93.71-6.98,0-8.77-1.63-8.89-8.65l4.33-.59c.04,3.73.44,4.84,4.44,4.84Zm-2.26-20.12c3.29,0,6.27-.56,9.41-1.63v4.6c-3.37.67-6.79,1.11-10.2,1.11-1.43,0-2.86-.04-4.29-.16v-4.37c1.67.24,3.37.44,5.08.44Z"/>
      <path class="cls-2" d="m594.75,290.48c-1.43,1.03-1.91,1.71-2.42,2.98-1.03,2.54-2.9,6.15-4.33,8.29,3.85,2.86,7.26,6.27,10.52,9.8l-3.53,3.77c-2.98-3.65-6.03-6.95-9.68-9.92-4.33,4.88-7.7,7.34-13.57,10.2l-3.49-3.61c5-2.1,8.89-4.56,12.66-8.57,3.14-3.33,5.08-6.59,6.75-10.83h-15.12v-4.6h17.11c.79,0,1.43-.44,2.06-.87l3.06,3.37Z"/>
      <path class="cls-2" d="m595.47,328.34c.32.32.56.56.56.79,0,.16-.08.36-.36.36-.08,0-.28-.04-.48-.08-.2-.04-.36-.04-.48-.04-.28,0-.91.28-1.83.67-5.32,2.22-10.87,3.93-16.51,5.2v6.07c0,2.74.71,3.57,6.71,3.57,4.45,0,8.85-.48,13.26-1.15l-.32,5.16c-3.77.32-7.58.48-11.39.48-2.98,0-8.69-.04-11.15-1.71-1.59-1.03-1.83-2.78-1.83-4.52v-24.25l4.41.63c.64.08,1.19.24,1.19.6,0,.28-.16.44-.56.67-.2.12-.32.28-.32.44v9.6c3.69-.67,5.95-1.27,9.45-2.66,2.34-.91,4.17-1.79,6.31-3.1l3.33,3.25Zm-2.34-6.55c0-2.06,1.63-3.81,3.73-3.81s3.73,1.71,3.73,3.81-1.59,3.81-3.65,3.81-3.81-1.67-3.81-3.81Zm3.77,2.18c1.19,0,2.1-1.03,2.1-2.18s-.91-2.18-2.14-2.18-2.14.99-2.14,2.18.95,2.18,2.18,2.18Z"/>
      <path class="cls-2" d="m585.7,355.37c.44.04,1.31.12,1.31.67,0,.24-.24.48-.44.6-.12.08-.48.36-.48.52v26.79h-5.36v-29.05l4.96.48Z"/>
      <path class="cls-2" d="m574.95,421.69l-3.73-3.33c7.42-2.62,10.44-6.19,10.56-14.21h-13.26v-4.13h29.81v4.13h-11.91c-.2,8.85-3.33,13.89-11.47,17.54Zm18.34-27.38h-19.41v-4.33h19.41v4.33Zm6.59,2.42c-1.39-1.19-2.62-2.06-4.17-2.98l1.51-2.22c1.63.91,2.74,1.71,4.17,2.98l-1.51,2.22Zm1.15-5.04c-1.27-1.15-2.5-1.87-4.01-2.7l1.47-2.14c1.43.79,2.82,1.59,4.01,2.7l-1.47,2.14Z"/>
      <path class="cls-2" d="m576.06,431.29c6.67-2.7,13.73-7.82,18.18-13.53l3.18,2.7c.2.16.28.24.28.4,0,.4-.71.64-1.19.67-.32.04-.4.12-.6.36-1.31,1.47-3.33,3.37-5.12,4.88v17.18h-4.09v-14.13c-2.66,1.83-5.12,3.33-8.1,4.6l-2.54-3.13Z"/>
      <path class="cls-2" d="m575.26,448.87c.75.28,1.03.44,1.03.71,0,.24-.16.36-.67.56-.12.04-.24.08-.32.2-.2.28-.83,2.38-.91,2.82-.75,3.37-1.27,7.1-1.27,10.6,0,1.59.08,3.93.56,5.44.52-.95,1.11-1.98,1.59-2.78l2.34,1.27c-1.23,2.86-1.94,5.87-2.42,8.93l-3.14,1.23c-1.19-1.91-1.63-3.33-2.14-5.52-.64-2.62-.95-5.36-.95-8.06,0-5.36,1.07-11.67,2.26-16.87l4.05,1.47Zm14.05,22.19c3.14,0,6.03-.4,9.05-1.23v4.92c-3.14.48-5.75.71-8.93.71-6.98,0-8.77-1.63-8.89-8.65l4.33-.59c.04,3.73.44,4.84,4.44,4.84Zm-2.26-20.12c3.29,0,6.27-.56,9.41-1.63v4.6c-3.37.67-6.79,1.11-10.2,1.11-1.43,0-2.86-.04-4.29-.16v-4.37c1.67.24,3.37.44,5.08.44Z"/>
    </g>
  </g>
</svg>