<svg viewBox="0 0 361.99 54" className="logo padding-0064" data-name="ETAC®︎" xmlns="http://www.w3.org/2000/svg" style="color: rgb(0, 0, 0);">                <path d="M77.76.74H8.86A8.57,8.57,0,0,0,.28,9.32V45.07a8.53,8.53,0,0,0,8.58,8.52H77.75a4,4,0,0,0,3.93-4V44.55a3.93,3.93,0,0,0-3.93-3.93H38.15a3.43,3.43,0,0,1-3.43-3.44V35.92a3.43,3.43,0,0,1,3.43-3.43H74A3.93,3.93,0,0,0,78,28.57V25.74A3.92,3.92,0,0,0,74,21.82l-35.89,0a3.43,3.43,0,0,1-3.43-3.44v-1.3a3.42,3.42,0,0,1,3.43-3.43v0H77.76a3.93,3.93,0,0,0,3.92-3.93V4.67A3.93,3.93,0,0,0,77.76.74Z"></path>                <path d="M104.85,13.64a3.42,3.42,0,0,1,3.43,3.42v28a8.57,8.57,0,0,0,8.57,8.57h17.49a8.58,8.58,0,0,0,8.58-8.57l0-28a3.41,3.41,0,0,1,3.43-3.42h23.69A3.91,3.91,0,0,0,174,9.73V4.67A3.93,3.93,0,0,0,170.06.74H92.36a3.93,3.93,0,0,0-3.92,3.93V9.73a3.91,3.91,0,0,0,3.92,3.91Z"></path>                <path d="M338.82,40.33H296.16a3.92,3.92,0,0,1-3.92-3.93v-18a3.91,3.91,0,0,1,3.92-3.92l29.69,0a3.9,3.9,0,0,1,3.9,3.92V22A3.91,3.91,0,0,0,333.66,26h5.07A3.93,3.93,0,0,0,342.65,22V6.46A5.6,5.6,0,0,0,336.87.74H262.8a8.58,8.58,0,0,0-8.57,8.58V45.07a8.57,8.57,0,0,0,8.57,8.57h76a3.92,3.92,0,0,0,3.93-3.92V44.26A3.93,3.93,0,0,0,338.82,40.33Z"></path>                <path d="M221.39,3.89A6.94,6.94,0,0,0,215.92.75H194.51a3.46,3.46,0,0,0-2.83,1.68L165.12,47.25a4.41,4.41,0,0,0-.54,2.14,4.25,4.25,0,0,0,4,4.25h21.87a3.22,3.22,0,0,0,2.75-1.6l6.67-11.22a1.54,1.54,0,0,1,1.16-.7h30.05a1.53,1.53,0,0,1,1.27.68l6.8,11.65a2.55,2.55,0,0,0,2,1.19h5.07a2.4,2.4,0,0,0,2.33-2.39,2.47,2.47,0,0,0-.38-1.29Zm-.82,24.74h-8.73a2.71,2.71,0,0,1-2.71-2.71,2.74,2.74,0,0,1,.48-1.52l4.79-8a2.16,2.16,0,0,1,3.73,0l4.68,8a2.7,2.7,0,0,1-2.24,4.24Z"></path>                <path d="M351.51,43.68h2.95c1,0,2,.18,2.1,1.68a1.63,1.63,0,0,1-.87,1.65c.68.43.75.6.77,1.68,0,.84.05,1.15.35,1.36v.22h-1a2.58,2.58,0,0,1-.19-.83c-.08-.78.3-2-1.08-2h-2.16v2.83h-.85Zm.85.75v2.26h2.12a1.05,1.05,0,0,0,1.22-1c.11-1.12-.7-1.25-1.23-1.25Z"></path>                <path d="M354,53.26a6.26,6.26,0,0,0,0-12.52,6.26,6.26,0,0,0,0,12.52ZM348.54,47a5.49,5.49,0,1,1,11,0,5.49,5.49,0,0,1-11,0Z"></path>            </svg>