<?xml version="1.0" encoding="UTF-8"?>
<svg id="_レイヤー_1" data-name="レイヤー 1" xmlns="http://www.w3.org/2000/svg" viewBox="0 0 100 100">
  <defs>
    <style>
      .cls-1 {
        fill: #000000;
        stroke-width: 0px;
      }
    </style>
  </defs>
  <path className="cls-1" d="m40.34,73.03c-3.02-1.3-5.68-3.1-7.98-5.4-2.3-2.3-4.1-4.96-5.4-7.97-1.3-3.01-1.95-6.23-1.95-9.67s.65-6.63,1.95-9.64c1.3-3.01,3.1-5.67,5.39-7.97,2.29-2.3,4.95-4.1,7.97-5.4,3.02-1.3,6.24-1.95,9.66-1.95s6.64.65,9.67,1.95,5.69,3.1,7.98,5.4,4.09,4.96,5.4,7.97c1.31,3.01,1.96,6.23,1.96,9.64s-.65,6.66-1.96,9.67c-1.31,3.01-3.11,5.67-5.4,7.97-2.29,2.3-4.95,4.1-7.97,5.4-3.02,1.3-6.24,1.95-9.66,1.95s-6.64-.65-9.66-1.95Zm8.33-11.5c.41-.23.75-.55,1.04-.97l11.19-17.3c.18-.27.32-.56.44-.86.12-.3.18-.61.18-.91,0-.67-.25-1.21-.75-1.63-.5-.41-1.07-.62-1.71-.62-.85,0-1.56.46-2.13,1.37l-9.66,15.43-4.43-5.56c-.32-.4-.64-.68-.96-.85-.32-.17-.68-.25-1.08-.25-.67,0-1.24.24-1.7.71-.46.47-.7,1.04-.7,1.71,0,.32.06.63.18.92.12.3.29.6.52.9l5.77,6.95c.35.45.73.78,1.13.99.4.22.85.32,1.34.32s.92-.12,1.33-.35Z"/>
</svg>